<mxfile host="app.diagrams.net" modified="2021-09-21T15:12:22.954Z" agent="5.0 (X11; Linux x86_64) AppleWebKit/537.36 (KHTML, like Gecko) Chrome/93.0.4577.82 Safari/537.36" etag="BixXAg3d8eeuttHTjtl9" version="15.2.9" type="github" pages="3">
  <diagram name="Page Flow" id="c4acf3e9-155e-7222-9cf6-157b1a14988f">
    <mxGraphModel dx="2770" dy="1548" grid="1" gridSize="10" guides="1" tooltips="1" connect="1" arrows="1" fold="1" page="1" pageScale="1" pageWidth="850" pageHeight="1100" background="none" math="0" shadow="0">
      <root>
        <mxCell id="0" />
        <mxCell id="1" parent="0" />
        <mxCell id="QjU3JXXY-2pWFs3UZOMo-84" value="&lt;font color=&quot;#ffffff&quot;&gt;pages&lt;/font&gt;" style="shape=umlFrame;whiteSpace=wrap;html=1;rounded=0;sketch=0;fontSize=15;fillColor=#4F67FF;align=left;" parent="1" vertex="1">
          <mxGeometry x="-1140" y="920" width="3200" height="3280" as="geometry" />
        </mxCell>
        <mxCell id="QjU3JXXY-2pWFs3UZOMo-28" style="edgeStyle=orthogonalEdgeStyle;rounded=0;orthogonalLoop=1;jettySize=auto;html=1;entryX=0.5;entryY=0;entryDx=0;entryDy=0;fontSize=15;" parent="1" source="QjU3JXXY-2pWFs3UZOMo-2" target="QjU3JXXY-2pWFs3UZOMo-15" edge="1">
          <mxGeometry relative="1" as="geometry" />
        </mxCell>
        <mxCell id="QjU3JXXY-2pWFs3UZOMo-29" value="...props" style="edgeLabel;html=1;align=center;verticalAlign=middle;resizable=0;points=[];fontSize=15;" parent="QjU3JXXY-2pWFs3UZOMo-28" vertex="1" connectable="0">
          <mxGeometry x="-0.3358" y="-2" relative="1" as="geometry">
            <mxPoint as="offset" />
          </mxGeometry>
        </mxCell>
        <mxCell id="QjU3JXXY-2pWFs3UZOMo-2" value="_app" style="swimlane;html=1;fontStyle=0;childLayout=stackLayout;horizontal=1;startSize=26;fillColor=#60a917;horizontalStack=0;resizeParent=1;resizeLast=0;collapsible=1;marginBottom=0;swimlaneFillColor=#ffffff;rounded=0;shadow=0;comic=0;labelBackgroundColor=none;strokeWidth=1;fontFamily=Verdana;fontSize=15;align=center;strokeColor=#2D7600;fontColor=#ffffff;" parent="1" vertex="1">
          <mxGeometry x="400" y="280" width="160" height="234" as="geometry" />
        </mxCell>
        <mxCell id="QjU3JXXY-2pWFs3UZOMo-27" value="Props:&lt;br&gt;&lt;br&gt;&lt;ul&gt;&lt;li&gt;Component&lt;/li&gt;&lt;li&gt;pageProps&lt;/li&gt;&lt;/ul&gt;" style="text;html=1;strokeColor=#82b366;align=left;verticalAlign=top;spacingLeft=4;spacingRight=4;whiteSpace=wrap;overflow=hidden;rotatable=0;points=[[0,0.5],[1,0.5]];portConstraint=eastwest;sketch=0;rounded=0;fillColor=#d5e8d4;" parent="QjU3JXXY-2pWFs3UZOMo-2" vertex="1">
          <mxGeometry y="26" width="160" height="104" as="geometry" />
        </mxCell>
        <mxCell id="QjU3JXXY-2pWFs3UZOMo-3" value="Child components" style="text;html=1;strokeColor=#666666;align=left;verticalAlign=top;spacingLeft=4;spacingRight=4;whiteSpace=wrap;overflow=hidden;rotatable=0;points=[[0,0.5],[1,0.5]];portConstraint=eastwest;sketch=0;rounded=0;fillColor=#f5f5f5;fontColor=#333333;" parent="QjU3JXXY-2pWFs3UZOMo-2" vertex="1">
          <mxGeometry y="130" width="160" height="22" as="geometry" />
        </mxCell>
        <mxCell id="QjU3JXXY-2pWFs3UZOMo-4" value="State" style="text;html=1;strokeColor=#6c8ebf;fillColor=#dae8fc;align=left;verticalAlign=top;spacingLeft=4;spacingRight=4;whiteSpace=wrap;overflow=hidden;rotatable=0;points=[[0,0.5],[1,0.5]];portConstraint=eastwest;" parent="QjU3JXXY-2pWFs3UZOMo-2" vertex="1">
          <mxGeometry y="152" width="160" height="26" as="geometry" />
        </mxCell>
        <mxCell id="QjU3JXXY-2pWFs3UZOMo-5" value="Variables&amp;nbsp;" style="text;html=1;strokeColor=#d79b00;fillColor=#ffe6cc;align=left;verticalAlign=top;spacingLeft=4;spacingRight=4;whiteSpace=wrap;overflow=hidden;rotatable=0;points=[[0,0.5],[1,0.5]];portConstraint=eastwest;" parent="QjU3JXXY-2pWFs3UZOMo-2" vertex="1">
          <mxGeometry y="178" width="160" height="26" as="geometry" />
        </mxCell>
        <mxCell id="QjU3JXXY-2pWFs3UZOMo-14" value="Functions&lt;br&gt;" style="text;html=1;strokeColor=#9673a6;fillColor=#e1d5e7;align=left;verticalAlign=top;spacingLeft=4;spacingRight=4;whiteSpace=wrap;overflow=hidden;rotatable=0;points=[[0,0.5],[1,0.5]];portConstraint=eastwest;" parent="QjU3JXXY-2pWFs3UZOMo-2" vertex="1">
          <mxGeometry y="204" width="160" height="30" as="geometry" />
        </mxCell>
        <mxCell id="QjU3JXXY-2pWFs3UZOMo-86" style="edgeStyle=orthogonalEdgeStyle;rounded=0;orthogonalLoop=1;jettySize=auto;html=1;fontSize=15;" parent="1" source="QjU3JXXY-2pWFs3UZOMo-15" target="QjU3JXXY-2pWFs3UZOMo-84" edge="1">
          <mxGeometry relative="1" as="geometry" />
        </mxCell>
        <mxCell id="QjU3JXXY-2pWFs3UZOMo-15" value="Layout" style="swimlane;html=1;fontStyle=0;childLayout=stackLayout;horizontal=1;startSize=26;fillColor=#60a917;horizontalStack=0;resizeParent=1;resizeLast=0;collapsible=1;marginBottom=0;swimlaneFillColor=#ffffff;rounded=0;shadow=0;comic=0;labelBackgroundColor=none;strokeWidth=1;fontFamily=Verdana;fontSize=15;align=center;strokeColor=#2D7600;fontColor=#ffffff;" parent="1" vertex="1">
          <mxGeometry x="400" y="630" width="160" height="258" as="geometry" />
        </mxCell>
        <mxCell id="QjU3JXXY-2pWFs3UZOMo-31" value="Props:&lt;br&gt;&lt;ul&gt;&lt;li&gt;children&lt;/li&gt;&lt;/ul&gt;" style="text;html=1;strokeColor=#82b366;align=left;verticalAlign=top;spacingLeft=4;spacingRight=4;whiteSpace=wrap;overflow=hidden;rotatable=0;points=[[0,0.5],[1,0.5]];portConstraint=eastwest;sketch=0;rounded=0;fillColor=#d5e8d4;" parent="QjU3JXXY-2pWFs3UZOMo-15" vertex="1">
          <mxGeometry y="26" width="160" height="64" as="geometry" />
        </mxCell>
        <mxCell id="QjU3JXXY-2pWFs3UZOMo-16" value="Child components:&lt;br&gt;&lt;ul&gt;&lt;li&gt;Header&lt;/li&gt;&lt;li&gt;Footer&lt;/li&gt;&lt;li&gt;Navbar&lt;/li&gt;&lt;/ul&gt;" style="text;html=1;strokeColor=#666666;align=left;verticalAlign=top;spacingLeft=4;spacingRight=4;whiteSpace=wrap;overflow=hidden;rotatable=0;points=[[0,0.5],[1,0.5]];portConstraint=eastwest;sketch=0;rounded=0;fillColor=#f5f5f5;fontColor=#333333;" parent="QjU3JXXY-2pWFs3UZOMo-15" vertex="1">
          <mxGeometry y="90" width="160" height="90" as="geometry" />
        </mxCell>
        <mxCell id="QjU3JXXY-2pWFs3UZOMo-17" value="State" style="text;html=1;strokeColor=#6c8ebf;fillColor=#dae8fc;align=left;verticalAlign=top;spacingLeft=4;spacingRight=4;whiteSpace=wrap;overflow=hidden;rotatable=0;points=[[0,0.5],[1,0.5]];portConstraint=eastwest;" parent="QjU3JXXY-2pWFs3UZOMo-15" vertex="1">
          <mxGeometry y="180" width="160" height="26" as="geometry" />
        </mxCell>
        <mxCell id="QjU3JXXY-2pWFs3UZOMo-19" value="Functions&lt;br&gt;" style="text;html=1;strokeColor=#9673a6;fillColor=#e1d5e7;align=left;verticalAlign=top;spacingLeft=4;spacingRight=4;whiteSpace=wrap;overflow=hidden;rotatable=0;points=[[0,0.5],[1,0.5]];portConstraint=eastwest;" parent="QjU3JXXY-2pWFs3UZOMo-15" vertex="1">
          <mxGeometry y="206" width="160" height="26" as="geometry" />
        </mxCell>
        <mxCell id="QjU3JXXY-2pWFs3UZOMo-18" value="Variables&amp;nbsp;" style="text;html=1;strokeColor=#d79b00;fillColor=#ffe6cc;align=left;verticalAlign=top;spacingLeft=4;spacingRight=4;whiteSpace=wrap;overflow=hidden;rotatable=0;points=[[0,0.5],[1,0.5]];portConstraint=eastwest;" parent="QjU3JXXY-2pWFs3UZOMo-15" vertex="1">
          <mxGeometry y="232" width="160" height="26" as="geometry" />
        </mxCell>
        <mxCell id="QjU3JXXY-2pWFs3UZOMo-42" value="Home Page" style="swimlane;html=1;fontStyle=0;childLayout=stackLayout;horizontal=1;startSize=26;fillColor=#60a917;horizontalStack=0;resizeParent=1;resizeLast=0;collapsible=1;marginBottom=0;swimlaneFillColor=#ffffff;rounded=0;shadow=0;comic=0;labelBackgroundColor=none;strokeWidth=1;fontFamily=Verdana;fontSize=15;align=center;strokeColor=#2D7600;fontColor=#ffffff;" parent="1" vertex="1">
          <mxGeometry x="330" y="1320" width="160" height="240" as="geometry" />
        </mxCell>
        <mxCell id="QjU3JXXY-2pWFs3UZOMo-43" value="Props:: None&lt;br&gt;" style="text;html=1;strokeColor=#82b366;align=left;verticalAlign=top;spacingLeft=4;spacingRight=4;whiteSpace=wrap;overflow=hidden;rotatable=0;points=[[0,0.5],[1,0.5]];portConstraint=eastwest;sketch=0;rounded=0;fillColor=#d5e8d4;" parent="QjU3JXXY-2pWFs3UZOMo-42" vertex="1">
          <mxGeometry y="26" width="160" height="24" as="geometry" />
        </mxCell>
        <mxCell id="QjU3JXXY-2pWFs3UZOMo-44" value="Child components:&lt;br&gt;&lt;ul&gt;&lt;li&gt;HomeHeader&lt;/li&gt;&lt;li&gt;HomeMain&lt;/li&gt;&lt;li&gt;SiteFooter&lt;span&gt;	&lt;/span&gt;&lt;/li&gt;&lt;/ul&gt;" style="text;html=1;strokeColor=#666666;align=left;verticalAlign=top;spacingLeft=4;spacingRight=4;whiteSpace=wrap;overflow=hidden;rotatable=0;points=[[0,0.5],[1,0.5]];portConstraint=eastwest;sketch=0;rounded=0;fillColor=#f5f5f5;fontColor=#333333;" parent="QjU3JXXY-2pWFs3UZOMo-42" vertex="1">
          <mxGeometry y="50" width="160" height="100" as="geometry" />
        </mxCell>
        <mxCell id="QjU3JXXY-2pWFs3UZOMo-45" value="State: None" style="text;html=1;strokeColor=#6c8ebf;fillColor=#dae8fc;align=left;verticalAlign=top;spacingLeft=4;spacingRight=4;whiteSpace=wrap;overflow=hidden;rotatable=0;points=[[0,0.5],[1,0.5]];portConstraint=eastwest;" parent="QjU3JXXY-2pWFs3UZOMo-42" vertex="1">
          <mxGeometry y="150" width="160" height="30" as="geometry" />
        </mxCell>
        <mxCell id="QjU3JXXY-2pWFs3UZOMo-46" value="Functions: None" style="text;html=1;strokeColor=#9673a6;fillColor=#e1d5e7;align=left;verticalAlign=top;spacingLeft=4;spacingRight=4;whiteSpace=wrap;overflow=hidden;rotatable=0;points=[[0,0.5],[1,0.5]];portConstraint=eastwest;" parent="QjU3JXXY-2pWFs3UZOMo-42" vertex="1">
          <mxGeometry y="180" width="160" height="30" as="geometry" />
        </mxCell>
        <mxCell id="QjU3JXXY-2pWFs3UZOMo-47" value="Variables: None&lt;br&gt;" style="text;html=1;strokeColor=#d79b00;fillColor=#ffe6cc;align=left;verticalAlign=top;spacingLeft=4;spacingRight=4;whiteSpace=wrap;overflow=hidden;rotatable=0;points=[[0,0.5],[1,0.5]];portConstraint=eastwest;" parent="QjU3JXXY-2pWFs3UZOMo-42" vertex="1">
          <mxGeometry y="210" width="160" height="30" as="geometry" />
        </mxCell>
        <mxCell id="QjU3JXXY-2pWFs3UZOMo-53" value="Shopper Dashboard" style="swimlane;html=1;fontStyle=0;childLayout=stackLayout;horizontal=1;startSize=26;fillColor=#60a917;horizontalStack=0;resizeParent=1;resizeLast=0;collapsible=1;marginBottom=0;swimlaneFillColor=#ffffff;rounded=0;shadow=0;comic=0;labelBackgroundColor=none;strokeWidth=1;fontFamily=Verdana;fontSize=15;align=center;strokeColor=#2D7600;fontColor=#ffffff;" parent="1" vertex="1">
          <mxGeometry x="260" y="2140" width="160" height="278" as="geometry" />
        </mxCell>
        <mxCell id="QjU3JXXY-2pWFs3UZOMo-54" value="Props:&lt;br&gt;&lt;ul&gt;&lt;li&gt;slug&lt;/li&gt;&lt;/ul&gt;" style="text;html=1;strokeColor=#82b366;align=left;verticalAlign=top;spacingLeft=4;spacingRight=4;whiteSpace=wrap;overflow=hidden;rotatable=0;points=[[0,0.5],[1,0.5]];portConstraint=eastwest;sketch=0;rounded=0;fillColor=#d5e8d4;" parent="QjU3JXXY-2pWFs3UZOMo-53" vertex="1">
          <mxGeometry y="26" width="160" height="64" as="geometry" />
        </mxCell>
        <mxCell id="QjU3JXXY-2pWFs3UZOMo-55" value="Child components:&lt;br&gt;&lt;ul&gt;&lt;li&gt;&lt;span&gt;Header&lt;/span&gt;&lt;/li&gt;&lt;li&gt;&lt;span&gt;Footer&lt;/span&gt;&lt;/li&gt;&lt;li&gt;&lt;span&gt;SideBar (SideMenu)&lt;/span&gt;&lt;/li&gt;&lt;li&gt;ShopperMain&lt;/li&gt;&lt;/ul&gt;" style="text;html=1;strokeColor=#666666;align=left;verticalAlign=top;spacingLeft=4;spacingRight=4;whiteSpace=wrap;overflow=hidden;rotatable=0;points=[[0,0.5],[1,0.5]];portConstraint=eastwest;sketch=0;rounded=0;fillColor=#f5f5f5;fontColor=#333333;" parent="QjU3JXXY-2pWFs3UZOMo-53" vertex="1">
          <mxGeometry y="90" width="160" height="110" as="geometry" />
        </mxCell>
        <mxCell id="QjU3JXXY-2pWFs3UZOMo-56" value="State" style="text;html=1;strokeColor=#6c8ebf;fillColor=#dae8fc;align=left;verticalAlign=top;spacingLeft=4;spacingRight=4;whiteSpace=wrap;overflow=hidden;rotatable=0;points=[[0,0.5],[1,0.5]];portConstraint=eastwest;" parent="QjU3JXXY-2pWFs3UZOMo-53" vertex="1">
          <mxGeometry y="200" width="160" height="26" as="geometry" />
        </mxCell>
        <mxCell id="QjU3JXXY-2pWFs3UZOMo-57" value="Functions&lt;br&gt;" style="text;html=1;strokeColor=#9673a6;fillColor=#e1d5e7;align=left;verticalAlign=top;spacingLeft=4;spacingRight=4;whiteSpace=wrap;overflow=hidden;rotatable=0;points=[[0,0.5],[1,0.5]];portConstraint=eastwest;" parent="QjU3JXXY-2pWFs3UZOMo-53" vertex="1">
          <mxGeometry y="226" width="160" height="26" as="geometry" />
        </mxCell>
        <mxCell id="QjU3JXXY-2pWFs3UZOMo-58" value="Variables&amp;nbsp;" style="text;html=1;strokeColor=#d79b00;fillColor=#ffe6cc;align=left;verticalAlign=top;spacingLeft=4;spacingRight=4;whiteSpace=wrap;overflow=hidden;rotatable=0;points=[[0,0.5],[1,0.5]];portConstraint=eastwest;" parent="QjU3JXXY-2pWFs3UZOMo-53" vertex="1">
          <mxGeometry y="252" width="160" height="26" as="geometry" />
        </mxCell>
        <mxCell id="QjU3JXXY-2pWFs3UZOMo-60" value="Login Page" style="swimlane;html=1;fontStyle=0;childLayout=stackLayout;horizontal=1;startSize=26;fillColor=#60a917;horizontalStack=0;resizeParent=1;resizeLast=0;collapsible=1;marginBottom=0;swimlaneFillColor=#ffffff;rounded=0;shadow=0;comic=0;labelBackgroundColor=none;strokeWidth=1;fontFamily=Verdana;fontSize=15;align=center;strokeColor=#2D7600;fontColor=#ffffff;" parent="1" vertex="1">
          <mxGeometry x="520" y="1320" width="160" height="240" as="geometry" />
        </mxCell>
        <mxCell id="QjU3JXXY-2pWFs3UZOMo-61" value="Props: None" style="text;html=1;strokeColor=#82b366;align=left;verticalAlign=top;spacingLeft=4;spacingRight=4;whiteSpace=wrap;overflow=hidden;rotatable=0;points=[[0,0.5],[1,0.5]];portConstraint=eastwest;sketch=0;rounded=0;fillColor=#d5e8d4;" parent="QjU3JXXY-2pWFs3UZOMo-60" vertex="1">
          <mxGeometry y="26" width="160" height="24" as="geometry" />
        </mxCell>
        <mxCell id="HxADpOiNTDZusiQOzUtG-5" value="Props: None" style="text;html=1;strokeColor=#82b366;align=left;verticalAlign=top;spacingLeft=4;spacingRight=4;whiteSpace=wrap;overflow=hidden;rotatable=0;points=[[0,0.5],[1,0.5]];portConstraint=eastwest;sketch=0;rounded=0;fillColor=#d5e8d4;" parent="QjU3JXXY-2pWFs3UZOMo-60" vertex="1">
          <mxGeometry y="50" width="160" height="24" as="geometry" />
        </mxCell>
        <mxCell id="QjU3JXXY-2pWFs3UZOMo-62" value="Child components:&lt;br&gt;&lt;ul&gt;&lt;li&gt;LoginComponent&lt;/li&gt;&lt;/ul&gt;" style="text;html=1;strokeColor=#666666;align=left;verticalAlign=top;spacingLeft=4;spacingRight=4;whiteSpace=wrap;overflow=hidden;rotatable=0;points=[[0,0.5],[1,0.5]];portConstraint=eastwest;sketch=0;rounded=0;fillColor=#f5f5f5;fontColor=#333333;" parent="QjU3JXXY-2pWFs3UZOMo-60" vertex="1">
          <mxGeometry y="74" width="160" height="60" as="geometry" />
        </mxCell>
        <mxCell id="QjU3JXXY-2pWFs3UZOMo-63" value="State" style="text;html=1;strokeColor=#6c8ebf;fillColor=#dae8fc;align=left;verticalAlign=top;spacingLeft=4;spacingRight=4;whiteSpace=wrap;overflow=hidden;rotatable=0;points=[[0,0.5],[1,0.5]];portConstraint=eastwest;" parent="QjU3JXXY-2pWFs3UZOMo-60" vertex="1">
          <mxGeometry y="134" width="160" height="26" as="geometry" />
        </mxCell>
        <mxCell id="QjU3JXXY-2pWFs3UZOMo-64" value="Functions: Handled by Component" style="text;html=1;strokeColor=#9673a6;fillColor=#e1d5e7;align=left;verticalAlign=top;spacingLeft=4;spacingRight=4;whiteSpace=wrap;overflow=hidden;rotatable=0;points=[[0,0.5],[1,0.5]];portConstraint=eastwest;" parent="QjU3JXXY-2pWFs3UZOMo-60" vertex="1">
          <mxGeometry y="160" width="160" height="54" as="geometry" />
        </mxCell>
        <mxCell id="QjU3JXXY-2pWFs3UZOMo-65" value="Variables&amp;nbsp;" style="text;html=1;strokeColor=#d79b00;fillColor=#ffe6cc;align=left;verticalAlign=top;spacingLeft=4;spacingRight=4;whiteSpace=wrap;overflow=hidden;rotatable=0;points=[[0,0.5],[1,0.5]];portConstraint=eastwest;" parent="QjU3JXXY-2pWFs3UZOMo-60" vertex="1">
          <mxGeometry y="214" width="160" height="26" as="geometry" />
        </mxCell>
        <UserObject label="Vendor Dashboard" link="data:page/id,nNrPbDQTDCdM0eyME7X6" id="QjU3JXXY-2pWFs3UZOMo-106">
          <mxCell style="swimlane;html=1;fontStyle=0;childLayout=stackLayout;horizontal=1;startSize=26;fillColor=#60a917;horizontalStack=0;resizeParent=1;resizeLast=0;collapsible=1;marginBottom=0;swimlaneFillColor=#ffffff;rounded=0;shadow=0;comic=0;labelBackgroundColor=none;strokeWidth=1;fontFamily=Verdana;fontSize=15;align=center;strokeColor=#2D7600;fontColor=#ffffff;" parent="1" vertex="1">
            <mxGeometry x="850" y="2140" width="180" height="292" as="geometry" />
          </mxCell>
        </UserObject>
        <mxCell id="QjU3JXXY-2pWFs3UZOMo-107" value="Props:&lt;br&gt;&lt;ul&gt;&lt;li&gt;slug&lt;/li&gt;&lt;/ul&gt;" style="text;html=1;strokeColor=#82b366;align=left;verticalAlign=top;spacingLeft=4;spacingRight=4;whiteSpace=wrap;overflow=hidden;rotatable=0;points=[[0,0.5],[1,0.5]];portConstraint=eastwest;sketch=0;rounded=0;fillColor=#d5e8d4;" parent="QjU3JXXY-2pWFs3UZOMo-106" vertex="1">
          <mxGeometry y="26" width="180" height="64" as="geometry" />
        </mxCell>
        <mxCell id="QjU3JXXY-2pWFs3UZOMo-108" value="Child components:&lt;br&gt;&lt;ul&gt;&lt;li&gt;Header&lt;/li&gt;&lt;li&gt;Footer&lt;/li&gt;&lt;li&gt;Navbar&lt;/li&gt;&lt;li&gt;vendorMenu&lt;/li&gt;&lt;li&gt;VendorMain&lt;/li&gt;&lt;/ul&gt;" style="text;html=1;strokeColor=#666666;align=left;verticalAlign=top;spacingLeft=4;spacingRight=4;whiteSpace=wrap;overflow=hidden;rotatable=0;points=[[0,0.5],[1,0.5]];portConstraint=eastwest;sketch=0;rounded=0;fillColor=#f5f5f5;fontColor=#333333;" parent="QjU3JXXY-2pWFs3UZOMo-106" vertex="1">
          <mxGeometry y="90" width="180" height="120" as="geometry" />
        </mxCell>
        <mxCell id="QjU3JXXY-2pWFs3UZOMo-109" value="State" style="text;html=1;strokeColor=#6c8ebf;fillColor=#dae8fc;align=left;verticalAlign=top;spacingLeft=4;spacingRight=4;whiteSpace=wrap;overflow=hidden;rotatable=0;points=[[0,0.5],[1,0.5]];portConstraint=eastwest;" parent="QjU3JXXY-2pWFs3UZOMo-106" vertex="1">
          <mxGeometry y="210" width="180" height="30" as="geometry" />
        </mxCell>
        <mxCell id="QjU3JXXY-2pWFs3UZOMo-110" value="Functions&lt;br&gt;" style="text;html=1;strokeColor=#9673a6;fillColor=#e1d5e7;align=left;verticalAlign=top;spacingLeft=4;spacingRight=4;whiteSpace=wrap;overflow=hidden;rotatable=0;points=[[0,0.5],[1,0.5]];portConstraint=eastwest;" parent="QjU3JXXY-2pWFs3UZOMo-106" vertex="1">
          <mxGeometry y="240" width="180" height="26" as="geometry" />
        </mxCell>
        <mxCell id="QjU3JXXY-2pWFs3UZOMo-111" value="Variables&amp;nbsp;" style="text;html=1;strokeColor=#d79b00;fillColor=#ffe6cc;align=left;verticalAlign=top;spacingLeft=4;spacingRight=4;whiteSpace=wrap;overflow=hidden;rotatable=0;points=[[0,0.5],[1,0.5]];portConstraint=eastwest;" parent="QjU3JXXY-2pWFs3UZOMo-106" vertex="1">
          <mxGeometry y="266" width="180" height="26" as="geometry" />
        </mxCell>
        <mxCell id="QjU3JXXY-2pWFs3UZOMo-112" value="Creator Dashboard" style="swimlane;html=1;fontStyle=0;childLayout=stackLayout;horizontal=1;startSize=26;fillColor=#60a917;horizontalStack=0;resizeParent=1;resizeLast=0;collapsible=1;marginBottom=0;swimlaneFillColor=#ffffff;rounded=0;shadow=0;comic=0;labelBackgroundColor=none;strokeWidth=1;fontFamily=Verdana;fontSize=15;align=center;strokeColor=#2D7600;fontColor=#ffffff;" parent="1" vertex="1">
          <mxGeometry x="520" y="2140" width="160" height="278" as="geometry" />
        </mxCell>
        <mxCell id="QjU3JXXY-2pWFs3UZOMo-113" value="Props:&lt;br&gt;&lt;ul&gt;&lt;li&gt;slug&lt;/li&gt;&lt;/ul&gt;" style="text;html=1;strokeColor=#82b366;align=left;verticalAlign=top;spacingLeft=4;spacingRight=4;whiteSpace=wrap;overflow=hidden;rotatable=0;points=[[0,0.5],[1,0.5]];portConstraint=eastwest;sketch=0;rounded=0;fillColor=#d5e8d4;" parent="QjU3JXXY-2pWFs3UZOMo-112" vertex="1">
          <mxGeometry y="26" width="160" height="64" as="geometry" />
        </mxCell>
        <mxCell id="QjU3JXXY-2pWFs3UZOMo-114" value="Child components:&lt;br&gt;&lt;ul&gt;&lt;li&gt;Header&lt;/li&gt;&lt;li&gt;Footer&lt;/li&gt;&lt;li&gt;Navbar&lt;/li&gt;&lt;li&gt;CreatorMenu&lt;/li&gt;&lt;li&gt;CreatorMain&lt;/li&gt;&lt;/ul&gt;" style="text;html=1;strokeColor=#666666;align=left;verticalAlign=top;spacingLeft=4;spacingRight=4;whiteSpace=wrap;overflow=hidden;rotatable=0;points=[[0,0.5],[1,0.5]];portConstraint=eastwest;sketch=0;rounded=0;fillColor=#f5f5f5;fontColor=#333333;" parent="QjU3JXXY-2pWFs3UZOMo-112" vertex="1">
          <mxGeometry y="90" width="160" height="110" as="geometry" />
        </mxCell>
        <mxCell id="QjU3JXXY-2pWFs3UZOMo-115" value="State" style="text;html=1;strokeColor=#6c8ebf;fillColor=#dae8fc;align=left;verticalAlign=top;spacingLeft=4;spacingRight=4;whiteSpace=wrap;overflow=hidden;rotatable=0;points=[[0,0.5],[1,0.5]];portConstraint=eastwest;" parent="QjU3JXXY-2pWFs3UZOMo-112" vertex="1">
          <mxGeometry y="200" width="160" height="26" as="geometry" />
        </mxCell>
        <mxCell id="QjU3JXXY-2pWFs3UZOMo-116" value="Functions&lt;br&gt;" style="text;html=1;strokeColor=#9673a6;fillColor=#e1d5e7;align=left;verticalAlign=top;spacingLeft=4;spacingRight=4;whiteSpace=wrap;overflow=hidden;rotatable=0;points=[[0,0.5],[1,0.5]];portConstraint=eastwest;" parent="QjU3JXXY-2pWFs3UZOMo-112" vertex="1">
          <mxGeometry y="226" width="160" height="26" as="geometry" />
        </mxCell>
        <mxCell id="QjU3JXXY-2pWFs3UZOMo-117" value="Variables&amp;nbsp;" style="text;html=1;strokeColor=#d79b00;fillColor=#ffe6cc;align=left;verticalAlign=top;spacingLeft=4;spacingRight=4;whiteSpace=wrap;overflow=hidden;rotatable=0;points=[[0,0.5],[1,0.5]];portConstraint=eastwest;" parent="QjU3JXXY-2pWFs3UZOMo-112" vertex="1">
          <mxGeometry y="252" width="160" height="26" as="geometry" />
        </mxCell>
        <mxCell id="ASHqUuI7pZNee8ydB6nJ-18" value="" style="endArrow=block;dashed=1;endFill=0;endSize=12;html=1;" parent="1" source="QjU3JXXY-2pWFs3UZOMo-112" target="QjU3JXXY-2pWFs3UZOMo-60" edge="1">
          <mxGeometry width="160" relative="1" as="geometry">
            <mxPoint x="90" y="1230" as="sourcePoint" />
            <mxPoint x="340" y="1192" as="targetPoint" />
          </mxGeometry>
        </mxCell>
        <mxCell id="ASHqUuI7pZNee8ydB6nJ-19" value="" style="endArrow=block;dashed=1;endFill=0;endSize=12;html=1;" parent="1" source="QjU3JXXY-2pWFs3UZOMo-106" target="QjU3JXXY-2pWFs3UZOMo-60" edge="1">
          <mxGeometry width="160" relative="1" as="geometry">
            <mxPoint x="270" y="1250" as="sourcePoint" />
            <mxPoint x="430" y="1250" as="targetPoint" />
          </mxGeometry>
        </mxCell>
        <mxCell id="ASHqUuI7pZNee8ydB6nJ-20" value="" style="endArrow=block;dashed=1;endFill=0;endSize=12;html=1;" parent="1" source="QjU3JXXY-2pWFs3UZOMo-53" target="QjU3JXXY-2pWFs3UZOMo-60" edge="1">
          <mxGeometry width="160" relative="1" as="geometry">
            <mxPoint x="530" y="1190" as="sourcePoint" />
            <mxPoint x="690" y="1190" as="targetPoint" />
            <Array as="points" />
          </mxGeometry>
        </mxCell>
        <mxCell id="ASHqUuI7pZNee8ydB6nJ-35" style="edgeStyle=orthogonalEdgeStyle;rounded=0;orthogonalLoop=1;jettySize=auto;html=1;" parent="1" source="ASHqUuI7pZNee8ydB6nJ-21" target="ASHqUuI7pZNee8ydB6nJ-33" edge="1">
          <mxGeometry relative="1" as="geometry" />
        </mxCell>
        <mxCell id="ASHqUuI7pZNee8ydB6nJ-21" value="User Repository" style="swimlane;fontStyle=1;align=center;verticalAlign=top;childLayout=stackLayout;horizontal=1;startSize=26;horizontalStack=0;resizeParent=1;resizeParentMax=0;resizeLast=0;collapsible=1;marginBottom=0;" parent="1" vertex="1">
          <mxGeometry x="-410" y="2670" width="160" height="78" as="geometry" />
        </mxCell>
        <mxCell id="ASHqUuI7pZNee8ydB6nJ-22" value="+ field: type" style="text;strokeColor=none;fillColor=none;align=left;verticalAlign=top;spacingLeft=4;spacingRight=4;overflow=hidden;rotatable=0;points=[[0,0.5],[1,0.5]];portConstraint=eastwest;" parent="ASHqUuI7pZNee8ydB6nJ-21" vertex="1">
          <mxGeometry y="26" width="160" height="18" as="geometry" />
        </mxCell>
        <mxCell id="ASHqUuI7pZNee8ydB6nJ-23" value="" style="line;strokeWidth=1;fillColor=none;align=left;verticalAlign=middle;spacingTop=-1;spacingLeft=3;spacingRight=3;rotatable=0;labelPosition=right;points=[];portConstraint=eastwest;" parent="ASHqUuI7pZNee8ydB6nJ-21" vertex="1">
          <mxGeometry y="44" width="160" height="8" as="geometry" />
        </mxCell>
        <mxCell id="ASHqUuI7pZNee8ydB6nJ-24" value="+ method(type): type" style="text;strokeColor=none;fillColor=none;align=left;verticalAlign=top;spacingLeft=4;spacingRight=4;overflow=hidden;rotatable=0;points=[[0,0.5],[1,0.5]];portConstraint=eastwest;" parent="ASHqUuI7pZNee8ydB6nJ-21" vertex="1">
          <mxGeometry y="52" width="160" height="26" as="geometry" />
        </mxCell>
        <mxCell id="ASHqUuI7pZNee8ydB6nJ-28" value="" style="endArrow=open;endFill=1;endSize=12;html=1;" parent="1" source="ASHqUuI7pZNee8ydB6nJ-21" target="QjU3JXXY-2pWFs3UZOMo-117" edge="1">
          <mxGeometry width="160" relative="1" as="geometry">
            <mxPoint x="340" y="1648" as="sourcePoint" />
            <mxPoint x="190" y="1528" as="targetPoint" />
            <Array as="points">
              <mxPoint x="220" y="2480" />
            </Array>
          </mxGeometry>
        </mxCell>
        <mxCell id="ASHqUuI7pZNee8ydB6nJ-29" value="" style="endArrow=open;endFill=1;endSize=12;html=1;" parent="1" source="QjU3JXXY-2pWFs3UZOMo-42" target="QjU3JXXY-2pWFs3UZOMo-60" edge="1">
          <mxGeometry width="160" relative="1" as="geometry">
            <mxPoint x="90" y="1150" as="sourcePoint" />
            <mxPoint x="250" y="1150" as="targetPoint" />
          </mxGeometry>
        </mxCell>
        <mxCell id="ASHqUuI7pZNee8ydB6nJ-30" value="" style="endArrow=open;endFill=1;endSize=12;html=1;" parent="1" source="ASHqUuI7pZNee8ydB6nJ-21" target="QjU3JXXY-2pWFs3UZOMo-53" edge="1">
          <mxGeometry width="160" relative="1" as="geometry">
            <mxPoint x="345" y="1620" as="sourcePoint" />
            <mxPoint x="140" y="1528" as="targetPoint" />
          </mxGeometry>
        </mxCell>
        <mxCell id="ASHqUuI7pZNee8ydB6nJ-31" value="" style="endArrow=open;endFill=1;endSize=12;html=1;" parent="1" source="ASHqUuI7pZNee8ydB6nJ-21" target="QjU3JXXY-2pWFs3UZOMo-106" edge="1">
          <mxGeometry width="160" relative="1" as="geometry">
            <mxPoint x="50" y="1590" as="sourcePoint" />
            <mxPoint x="296" y="1660" as="targetPoint" />
            <Array as="points">
              <mxPoint x="230" y="2500" />
              <mxPoint x="720" y="2430" />
            </Array>
          </mxGeometry>
        </mxCell>
        <mxCell id="ASHqUuI7pZNee8ydB6nJ-33" value="&lt;p style=&quot;margin: 0px ; margin-top: 4px ; text-align: center&quot;&gt;&lt;i&gt;&amp;lt;&amp;lt;Interface&amp;gt;&amp;gt;&lt;/i&gt;&lt;br&gt;&lt;b&gt;user dasboard&lt;/b&gt;&lt;/p&gt;&lt;hr size=&quot;1&quot;&gt;&lt;p style=&quot;margin: 0px ; margin-left: 4px&quot;&gt;+ field1: Type&lt;br&gt;+ field2: Type&lt;/p&gt;&lt;hr size=&quot;1&quot;&gt;&lt;p style=&quot;margin: 0px ; margin-left: 4px&quot;&gt;+ method1(Type): Type&lt;br&gt;+ method2(Type, Type): Type&lt;/p&gt;" style="verticalAlign=top;align=left;overflow=fill;fontSize=12;fontFamily=Helvetica;html=1;" parent="1" vertex="1">
          <mxGeometry x="-780" y="2860" width="190" height="140" as="geometry" />
        </mxCell>
        <mxCell id="ASHqUuI7pZNee8ydB6nJ-43" value="signup controller" style="swimlane;fontStyle=0;childLayout=stackLayout;horizontal=1;startSize=26;fillColor=none;horizontalStack=0;resizeParent=1;resizeParentMax=0;resizeLast=0;collapsible=1;marginBottom=0;" parent="1" vertex="1">
          <mxGeometry x="-520" y="2780" width="140" height="104" as="geometry" />
        </mxCell>
        <mxCell id="ASHqUuI7pZNee8ydB6nJ-44" value="+ field: type" style="text;strokeColor=none;fillColor=none;align=left;verticalAlign=top;spacingLeft=4;spacingRight=4;overflow=hidden;rotatable=0;points=[[0,0.5],[1,0.5]];portConstraint=eastwest;" parent="ASHqUuI7pZNee8ydB6nJ-43" vertex="1">
          <mxGeometry y="26" width="140" height="26" as="geometry" />
        </mxCell>
        <mxCell id="ASHqUuI7pZNee8ydB6nJ-45" value="+ field: type" style="text;strokeColor=none;fillColor=none;align=left;verticalAlign=top;spacingLeft=4;spacingRight=4;overflow=hidden;rotatable=0;points=[[0,0.5],[1,0.5]];portConstraint=eastwest;" parent="ASHqUuI7pZNee8ydB6nJ-43" vertex="1">
          <mxGeometry y="52" width="140" height="26" as="geometry" />
        </mxCell>
        <mxCell id="ASHqUuI7pZNee8ydB6nJ-46" value="+ field: type" style="text;strokeColor=none;fillColor=none;align=left;verticalAlign=top;spacingLeft=4;spacingRight=4;overflow=hidden;rotatable=0;points=[[0,0.5],[1,0.5]];portConstraint=eastwest;" parent="ASHqUuI7pZNee8ydB6nJ-43" vertex="1">
          <mxGeometry y="78" width="140" height="26" as="geometry" />
        </mxCell>
        <mxCell id="ASHqUuI7pZNee8ydB6nJ-53" value="" style="endArrow=block;startArrow=block;endFill=1;startFill=1;html=1;" parent="1" source="ASHqUuI7pZNee8ydB6nJ-43" target="ASHqUuI7pZNee8ydB6nJ-21" edge="1">
          <mxGeometry width="160" relative="1" as="geometry">
            <mxPoint x="-10" y="1900" as="sourcePoint" />
            <mxPoint x="340" y="1870" as="targetPoint" />
          </mxGeometry>
        </mxCell>
        <mxCell id="ASHqUuI7pZNee8ydB6nJ-55" value="" style="endArrow=block;startArrow=block;endFill=1;startFill=1;html=1;" parent="1" source="ASHqUuI7pZNee8ydB6nJ-21" target="ASHqUuI7pZNee8ydB6nJ-47" edge="1">
          <mxGeometry width="160" relative="1" as="geometry">
            <mxPoint x="380" y="1870" as="sourcePoint" />
            <mxPoint x="540" y="1750" as="targetPoint" />
          </mxGeometry>
        </mxCell>
        <mxCell id="ASHqUuI7pZNee8ydB6nJ-62" value="boundary&#xa;signup page" style="swimlane;fontStyle=1;align=center;verticalAlign=top;childLayout=stackLayout;horizontal=1;startSize=34;horizontalStack=0;resizeParent=1;resizeParentMax=0;resizeLast=0;collapsible=1;marginBottom=0;" parent="1" vertex="1">
          <mxGeometry x="-520" y="2940" width="160" height="42" as="geometry" />
        </mxCell>
        <mxCell id="ASHqUuI7pZNee8ydB6nJ-63" value="" style="line;strokeWidth=1;fillColor=none;align=left;verticalAlign=middle;spacingTop=-1;spacingLeft=3;spacingRight=3;rotatable=0;labelPosition=right;points=[];portConstraint=eastwest;" parent="ASHqUuI7pZNee8ydB6nJ-62" vertex="1">
          <mxGeometry y="34" width="160" height="8" as="geometry" />
        </mxCell>
        <mxCell id="ASHqUuI7pZNee8ydB6nJ-65" value="boundary&#xa;Login  page" style="swimlane;fontStyle=1;align=center;verticalAlign=top;childLayout=stackLayout;horizontal=1;startSize=34;horizontalStack=0;resizeParent=1;resizeParentMax=0;resizeLast=0;collapsible=1;marginBottom=0;" parent="1" vertex="1">
          <mxGeometry x="-210" y="2938" width="160" height="46" as="geometry" />
        </mxCell>
        <mxCell id="ASHqUuI7pZNee8ydB6nJ-66" value="" style="line;strokeWidth=1;fillColor=none;align=left;verticalAlign=middle;spacingTop=-1;spacingLeft=3;spacingRight=3;rotatable=0;labelPosition=right;points=[];portConstraint=eastwest;" parent="ASHqUuI7pZNee8ydB6nJ-65" vertex="1">
          <mxGeometry y="34" width="160" height="12" as="geometry" />
        </mxCell>
        <mxCell id="ASHqUuI7pZNee8ydB6nJ-67" value="" style="endArrow=none;html=1;rounded=0;" parent="1" source="ASHqUuI7pZNee8ydB6nJ-62" target="ASHqUuI7pZNee8ydB6nJ-46" edge="1">
          <mxGeometry relative="1" as="geometry">
            <mxPoint x="130" y="1940" as="sourcePoint" />
            <mxPoint x="290" y="1940" as="targetPoint" />
          </mxGeometry>
        </mxCell>
        <mxCell id="_02DjtNMK4Eb3W8Fh0LB-1" value="SideMenu" style="swimlane;html=1;fontStyle=0;childLayout=stackLayout;horizontal=1;startSize=26;fillColor=#60a917;horizontalStack=0;resizeParent=1;resizeLast=0;collapsible=1;marginBottom=0;swimlaneFillColor=#ffffff;rounded=0;shadow=0;comic=0;labelBackgroundColor=none;strokeWidth=1;fontFamily=Verdana;fontSize=15;align=center;strokeColor=#2D7600;fontColor=#ffffff;" parent="1" vertex="1">
          <mxGeometry x="420" y="960" width="160" height="258" as="geometry" />
        </mxCell>
        <mxCell id="_02DjtNMK4Eb3W8Fh0LB-2" value="Props:&lt;br&gt;&lt;ul&gt;&lt;li&gt;slug&lt;/li&gt;&lt;/ul&gt;" style="text;html=1;strokeColor=#82b366;align=left;verticalAlign=top;spacingLeft=4;spacingRight=4;whiteSpace=wrap;overflow=hidden;rotatable=0;points=[[0,0.5],[1,0.5]];portConstraint=eastwest;sketch=0;rounded=0;fillColor=#d5e8d4;" parent="_02DjtNMK4Eb3W8Fh0LB-1" vertex="1">
          <mxGeometry y="26" width="160" height="64" as="geometry" />
        </mxCell>
        <mxCell id="_02DjtNMK4Eb3W8Fh0LB-3" value="Child components:&lt;br&gt;&lt;ul&gt;&lt;li&gt;[...SideMenuItem]&lt;/li&gt;&lt;/ul&gt;" style="text;html=1;strokeColor=#666666;align=left;verticalAlign=top;spacingLeft=4;spacingRight=4;whiteSpace=wrap;overflow=hidden;rotatable=0;points=[[0,0.5],[1,0.5]];portConstraint=eastwest;sketch=0;rounded=0;fillColor=#f5f5f5;fontColor=#333333;" parent="_02DjtNMK4Eb3W8Fh0LB-1" vertex="1">
          <mxGeometry y="90" width="160" height="90" as="geometry" />
        </mxCell>
        <mxCell id="_02DjtNMK4Eb3W8Fh0LB-4" value="State" style="text;html=1;strokeColor=#6c8ebf;fillColor=#dae8fc;align=left;verticalAlign=top;spacingLeft=4;spacingRight=4;whiteSpace=wrap;overflow=hidden;rotatable=0;points=[[0,0.5],[1,0.5]];portConstraint=eastwest;" parent="_02DjtNMK4Eb3W8Fh0LB-1" vertex="1">
          <mxGeometry y="180" width="160" height="26" as="geometry" />
        </mxCell>
        <mxCell id="_02DjtNMK4Eb3W8Fh0LB-5" value="Functions&lt;br&gt;" style="text;html=1;strokeColor=#9673a6;fillColor=#e1d5e7;align=left;verticalAlign=top;spacingLeft=4;spacingRight=4;whiteSpace=wrap;overflow=hidden;rotatable=0;points=[[0,0.5],[1,0.5]];portConstraint=eastwest;" parent="_02DjtNMK4Eb3W8Fh0LB-1" vertex="1">
          <mxGeometry y="206" width="160" height="26" as="geometry" />
        </mxCell>
        <mxCell id="_02DjtNMK4Eb3W8Fh0LB-6" value="Variables&amp;nbsp;" style="text;html=1;strokeColor=#d79b00;fillColor=#ffe6cc;align=left;verticalAlign=top;spacingLeft=4;spacingRight=4;whiteSpace=wrap;overflow=hidden;rotatable=0;points=[[0,0.5],[1,0.5]];portConstraint=eastwest;" parent="_02DjtNMK4Eb3W8Fh0LB-1" vertex="1">
          <mxGeometry y="232" width="160" height="26" as="geometry" />
        </mxCell>
        <mxCell id="_02DjtNMK4Eb3W8Fh0LB-7" value="ShopperMainMenu" style="swimlane;html=1;fontStyle=0;childLayout=stackLayout;horizontal=1;startSize=26;fillColor=#60a917;horizontalStack=0;resizeParent=1;resizeLast=0;collapsible=1;marginBottom=0;swimlaneFillColor=#ffffff;rounded=0;shadow=0;comic=0;labelBackgroundColor=none;strokeWidth=1;fontFamily=Verdana;fontSize=15;align=center;strokeColor=#2D7600;fontColor=#ffffff;" parent="1" vertex="1">
          <mxGeometry x="-150" y="1720" width="160" height="258" as="geometry" />
        </mxCell>
        <mxCell id="_02DjtNMK4Eb3W8Fh0LB-8" value="Props:&lt;br&gt;&lt;ul&gt;&lt;li&gt;slug&lt;/li&gt;&lt;/ul&gt;" style="text;html=1;strokeColor=#82b366;align=left;verticalAlign=top;spacingLeft=4;spacingRight=4;whiteSpace=wrap;overflow=hidden;rotatable=0;points=[[0,0.5],[1,0.5]];portConstraint=eastwest;sketch=0;rounded=0;fillColor=#d5e8d4;" parent="_02DjtNMK4Eb3W8Fh0LB-7" vertex="1">
          <mxGeometry y="26" width="160" height="64" as="geometry" />
        </mxCell>
        <mxCell id="_02DjtNMK4Eb3W8Fh0LB-9" value="Child components:&lt;br&gt;&lt;ul&gt;&lt;li&gt;Feed&lt;/li&gt;&lt;li&gt;Following&lt;/li&gt;&lt;li&gt;Explore&lt;/li&gt;&lt;li&gt;Closet&lt;/li&gt;&lt;/ul&gt;" style="text;html=1;strokeColor=#666666;align=left;verticalAlign=top;spacingLeft=4;spacingRight=4;whiteSpace=wrap;overflow=hidden;rotatable=0;points=[[0,0.5],[1,0.5]];portConstraint=eastwest;sketch=0;rounded=0;fillColor=#f5f5f5;fontColor=#333333;" parent="_02DjtNMK4Eb3W8Fh0LB-7" vertex="1">
          <mxGeometry y="90" width="160" height="90" as="geometry" />
        </mxCell>
        <mxCell id="_02DjtNMK4Eb3W8Fh0LB-10" value="State" style="text;html=1;strokeColor=#6c8ebf;fillColor=#dae8fc;align=left;verticalAlign=top;spacingLeft=4;spacingRight=4;whiteSpace=wrap;overflow=hidden;rotatable=0;points=[[0,0.5],[1,0.5]];portConstraint=eastwest;" parent="_02DjtNMK4Eb3W8Fh0LB-7" vertex="1">
          <mxGeometry y="180" width="160" height="26" as="geometry" />
        </mxCell>
        <mxCell id="_02DjtNMK4Eb3W8Fh0LB-11" value="Functions&lt;br&gt;" style="text;html=1;strokeColor=#9673a6;fillColor=#e1d5e7;align=left;verticalAlign=top;spacingLeft=4;spacingRight=4;whiteSpace=wrap;overflow=hidden;rotatable=0;points=[[0,0.5],[1,0.5]];portConstraint=eastwest;" parent="_02DjtNMK4Eb3W8Fh0LB-7" vertex="1">
          <mxGeometry y="206" width="160" height="26" as="geometry" />
        </mxCell>
        <mxCell id="_02DjtNMK4Eb3W8Fh0LB-12" value="Variables&amp;nbsp;" style="text;html=1;strokeColor=#d79b00;fillColor=#ffe6cc;align=left;verticalAlign=top;spacingLeft=4;spacingRight=4;whiteSpace=wrap;overflow=hidden;rotatable=0;points=[[0,0.5],[1,0.5]];portConstraint=eastwest;" parent="_02DjtNMK4Eb3W8Fh0LB-7" vertex="1">
          <mxGeometry y="232" width="160" height="26" as="geometry" />
        </mxCell>
        <mxCell id="_02DjtNMK4Eb3W8Fh0LB-14" value="" style="endArrow=block;startArrow=block;endFill=1;startFill=1;html=1;" parent="1" source="QjU3JXXY-2pWFs3UZOMo-42" target="QjU3JXXY-2pWFs3UZOMo-53" edge="1">
          <mxGeometry width="160" relative="1" as="geometry">
            <mxPoint x="50" y="1220" as="sourcePoint" />
            <mxPoint x="21" y="1460" as="targetPoint" />
          </mxGeometry>
        </mxCell>
        <mxCell id="dCwoUX2uS_OW_NThropL-2" value="" style="endArrow=none;html=1;" parent="1" source="_02DjtNMK4Eb3W8Fh0LB-7" target="QjU3JXXY-2pWFs3UZOMo-53" edge="1">
          <mxGeometry width="50" height="50" relative="1" as="geometry">
            <mxPoint x="-180" y="1560" as="sourcePoint" />
            <mxPoint y="1431" as="targetPoint" />
          </mxGeometry>
        </mxCell>
        <mxCell id="dCwoUX2uS_OW_NThropL-17" value="shopper repository" style="swimlane;fontStyle=1;align=center;verticalAlign=top;childLayout=stackLayout;horizontal=1;startSize=26;horizontalStack=0;resizeParent=1;resizeParentMax=0;resizeLast=0;collapsible=1;marginBottom=0;" parent="1" vertex="1">
          <mxGeometry x="-330" y="1762" width="160" height="78" as="geometry" />
        </mxCell>
        <mxCell id="dCwoUX2uS_OW_NThropL-18" value="+ field: type" style="text;strokeColor=none;fillColor=none;align=left;verticalAlign=top;spacingLeft=4;spacingRight=4;overflow=hidden;rotatable=0;points=[[0,0.5],[1,0.5]];portConstraint=eastwest;" parent="dCwoUX2uS_OW_NThropL-17" vertex="1">
          <mxGeometry y="26" width="160" height="18" as="geometry" />
        </mxCell>
        <mxCell id="dCwoUX2uS_OW_NThropL-19" value="" style="line;strokeWidth=1;fillColor=none;align=left;verticalAlign=middle;spacingTop=-1;spacingLeft=3;spacingRight=3;rotatable=0;labelPosition=right;points=[];portConstraint=eastwest;" parent="dCwoUX2uS_OW_NThropL-17" vertex="1">
          <mxGeometry y="44" width="160" height="8" as="geometry" />
        </mxCell>
        <mxCell id="dCwoUX2uS_OW_NThropL-20" value="+ method(type): type" style="text;strokeColor=none;fillColor=none;align=left;verticalAlign=top;spacingLeft=4;spacingRight=4;overflow=hidden;rotatable=0;points=[[0,0.5],[1,0.5]];portConstraint=eastwest;" parent="dCwoUX2uS_OW_NThropL-17" vertex="1">
          <mxGeometry y="52" width="160" height="26" as="geometry" />
        </mxCell>
        <mxCell id="14DQJMOeIjTHg0pRHyA--13" style="edgeStyle=orthogonalEdgeStyle;rounded=0;orthogonalLoop=1;jettySize=auto;html=1;exitX=0.5;exitY=1;exitDx=0;exitDy=0;entryX=0.497;entryY=1.011;entryDx=0;entryDy=0;entryPerimeter=0;" parent="dCwoUX2uS_OW_NThropL-17" source="dCwoUX2uS_OW_NThropL-17" target="dCwoUX2uS_OW_NThropL-20" edge="1">
          <mxGeometry relative="1" as="geometry" />
        </mxCell>
        <mxCell id="14DQJMOeIjTHg0pRHyA--1" style="edgeStyle=orthogonalEdgeStyle;rounded=0;orthogonalLoop=1;jettySize=auto;html=1;" parent="1" source="dCwoUX2uS_OW_NThropL-17" target="_02DjtNMK4Eb3W8Fh0LB-7" edge="1">
          <mxGeometry relative="1" as="geometry" />
        </mxCell>
        <mxCell id="14DQJMOeIjTHg0pRHyA--3" value="shopper main controller" style="swimlane;fontStyle=0;childLayout=stackLayout;horizontal=1;startSize=26;fillColor=none;horizontalStack=0;resizeParent=1;resizeParentMax=0;resizeLast=0;collapsible=1;marginBottom=0;" parent="1" vertex="1">
          <mxGeometry x="-320" y="1898" width="140" height="104" as="geometry" />
        </mxCell>
        <mxCell id="14DQJMOeIjTHg0pRHyA--4" value="+ field: type" style="text;strokeColor=none;fillColor=none;align=left;verticalAlign=top;spacingLeft=4;spacingRight=4;overflow=hidden;rotatable=0;points=[[0,0.5],[1,0.5]];portConstraint=eastwest;" parent="14DQJMOeIjTHg0pRHyA--3" vertex="1">
          <mxGeometry y="26" width="140" height="26" as="geometry" />
        </mxCell>
        <mxCell id="14DQJMOeIjTHg0pRHyA--5" value="+ field: type" style="text;strokeColor=none;fillColor=none;align=left;verticalAlign=top;spacingLeft=4;spacingRight=4;overflow=hidden;rotatable=0;points=[[0,0.5],[1,0.5]];portConstraint=eastwest;" parent="14DQJMOeIjTHg0pRHyA--3" vertex="1">
          <mxGeometry y="52" width="140" height="26" as="geometry" />
        </mxCell>
        <mxCell id="14DQJMOeIjTHg0pRHyA--6" value="+ field: type" style="text;strokeColor=none;fillColor=none;align=left;verticalAlign=top;spacingLeft=4;spacingRight=4;overflow=hidden;rotatable=0;points=[[0,0.5],[1,0.5]];portConstraint=eastwest;" parent="14DQJMOeIjTHg0pRHyA--3" vertex="1">
          <mxGeometry y="78" width="140" height="26" as="geometry" />
        </mxCell>
        <mxCell id="14DQJMOeIjTHg0pRHyA--7" value="" style="endArrow=classic;startArrow=classic;html=1;" parent="1" source="14DQJMOeIjTHg0pRHyA--3" target="dCwoUX2uS_OW_NThropL-17" edge="1">
          <mxGeometry width="50" height="50" relative="1" as="geometry">
            <mxPoint x="-540" y="1550" as="sourcePoint" />
            <mxPoint x="-530" y="1650" as="targetPoint" />
          </mxGeometry>
        </mxCell>
        <mxCell id="ASHqUuI7pZNee8ydB6nJ-47" value="Login controller" style="swimlane;fontStyle=0;childLayout=stackLayout;horizontal=1;startSize=26;fillColor=none;horizontalStack=0;resizeParent=1;resizeParentMax=0;resizeLast=0;collapsible=1;marginBottom=0;" parent="1" vertex="1">
          <mxGeometry x="-220" y="2780" width="140" height="104" as="geometry" />
        </mxCell>
        <mxCell id="ASHqUuI7pZNee8ydB6nJ-48" value="+ field: type" style="text;strokeColor=none;fillColor=none;align=left;verticalAlign=top;spacingLeft=4;spacingRight=4;overflow=hidden;rotatable=0;points=[[0,0.5],[1,0.5]];portConstraint=eastwest;" parent="ASHqUuI7pZNee8ydB6nJ-47" vertex="1">
          <mxGeometry y="26" width="140" height="26" as="geometry" />
        </mxCell>
        <mxCell id="ASHqUuI7pZNee8ydB6nJ-49" value="+ field: type" style="text;strokeColor=none;fillColor=none;align=left;verticalAlign=top;spacingLeft=4;spacingRight=4;overflow=hidden;rotatable=0;points=[[0,0.5],[1,0.5]];portConstraint=eastwest;" parent="ASHqUuI7pZNee8ydB6nJ-47" vertex="1">
          <mxGeometry y="52" width="140" height="26" as="geometry" />
        </mxCell>
        <mxCell id="ASHqUuI7pZNee8ydB6nJ-50" value="+ field: type" style="text;strokeColor=none;fillColor=none;align=left;verticalAlign=top;spacingLeft=4;spacingRight=4;overflow=hidden;rotatable=0;points=[[0,0.5],[1,0.5]];portConstraint=eastwest;" parent="ASHqUuI7pZNee8ydB6nJ-47" vertex="1">
          <mxGeometry y="78" width="140" height="26" as="geometry" />
        </mxCell>
        <mxCell id="14DQJMOeIjTHg0pRHyA--9" value="" style="endArrow=none;html=1;rounded=0;" parent="1" source="ASHqUuI7pZNee8ydB6nJ-65" target="ASHqUuI7pZNee8ydB6nJ-47" edge="1">
          <mxGeometry relative="1" as="geometry">
            <mxPoint x="478.96000000000004" y="2308.9880000000003" as="sourcePoint" />
            <mxPoint x="469" y="1890" as="targetPoint" />
          </mxGeometry>
        </mxCell>
        <UserObject label="VendorMenu" id="14DQJMOeIjTHg0pRHyA--14">
          <mxCell style="swimlane;html=1;fontStyle=0;childLayout=stackLayout;horizontal=1;startSize=26;fillColor=#60a917;horizontalStack=0;resizeParent=1;resizeLast=0;collapsible=1;marginBottom=0;swimlaneFillColor=#ffffff;rounded=0;shadow=0;comic=0;labelBackgroundColor=none;strokeWidth=1;fontFamily=Verdana;fontSize=15;align=center;strokeColor=#2D7600;fontColor=#ffffff;" parent="1" vertex="1">
            <mxGeometry x="1070" y="2490" width="180" height="432" as="geometry" />
          </mxCell>
        </UserObject>
        <mxCell id="14DQJMOeIjTHg0pRHyA--15" value="Props:&lt;br&gt;&lt;ul&gt;&lt;li&gt;slug&lt;/li&gt;&lt;/ul&gt;" style="text;html=1;strokeColor=#82b366;align=left;verticalAlign=top;spacingLeft=4;spacingRight=4;whiteSpace=wrap;overflow=hidden;rotatable=0;points=[[0,0.5],[1,0.5]];portConstraint=eastwest;sketch=0;rounded=0;fillColor=#d5e8d4;" parent="14DQJMOeIjTHg0pRHyA--14" vertex="1">
          <mxGeometry y="26" width="180" height="64" as="geometry" />
        </mxCell>
        <mxCell id="14DQJMOeIjTHg0pRHyA--16" value="&lt;div&gt;Child components:&lt;/div&gt;&lt;ul&gt;&lt;li&gt;profileMenu&lt;/li&gt;&lt;li&gt;ordersMenu&lt;/li&gt;&lt;li&gt;publishMenu&lt;/li&gt;&lt;/ul&gt;" style="text;html=1;strokeColor=#666666;align=left;verticalAlign=top;spacingLeft=4;spacingRight=4;whiteSpace=wrap;overflow=hidden;rotatable=0;points=[[0,0.5],[1,0.5]];portConstraint=eastwest;sketch=0;rounded=0;fillColor=#f5f5f5;fontColor=#333333;" parent="14DQJMOeIjTHg0pRHyA--14" vertex="1">
          <mxGeometry y="90" width="180" height="80" as="geometry" />
        </mxCell>
        <mxCell id="14DQJMOeIjTHg0pRHyA--17" value="State: Selected section, one of the following:&lt;br&gt;&lt;ul&gt;&lt;li&gt;Profile and subsections&lt;/li&gt;&lt;li&gt;Billing&lt;/li&gt;&lt;li&gt;Orders and subsections&lt;/li&gt;&lt;li&gt;Publish and subsections&lt;/li&gt;&lt;li&gt;Creator Catalog&lt;/li&gt;&lt;li&gt;Analytics&lt;/li&gt;&lt;li&gt;Apps&lt;/li&gt;&lt;li&gt;Discounts&lt;/li&gt;&lt;li&gt;Marketing&lt;/li&gt;&lt;li&gt;Sales Channel&lt;/li&gt;&lt;li&gt;Settings&lt;/li&gt;&lt;/ul&gt;" style="text;html=1;strokeColor=#6c8ebf;fillColor=#dae8fc;align=left;verticalAlign=top;spacingLeft=4;spacingRight=4;whiteSpace=wrap;overflow=hidden;rotatable=0;points=[[0,0.5],[1,0.5]];portConstraint=eastwest;" parent="14DQJMOeIjTHg0pRHyA--14" vertex="1">
          <mxGeometry y="170" width="180" height="210" as="geometry" />
        </mxCell>
        <mxCell id="14DQJMOeIjTHg0pRHyA--18" value="Functions&lt;br&gt;" style="text;html=1;strokeColor=#9673a6;fillColor=#e1d5e7;align=left;verticalAlign=top;spacingLeft=4;spacingRight=4;whiteSpace=wrap;overflow=hidden;rotatable=0;points=[[0,0.5],[1,0.5]];portConstraint=eastwest;" parent="14DQJMOeIjTHg0pRHyA--14" vertex="1">
          <mxGeometry y="380" width="180" height="26" as="geometry" />
        </mxCell>
        <mxCell id="14DQJMOeIjTHg0pRHyA--19" value="Variables&amp;nbsp;" style="text;html=1;strokeColor=#d79b00;fillColor=#ffe6cc;align=left;verticalAlign=top;spacingLeft=4;spacingRight=4;whiteSpace=wrap;overflow=hidden;rotatable=0;points=[[0,0.5],[1,0.5]];portConstraint=eastwest;" parent="14DQJMOeIjTHg0pRHyA--14" vertex="1">
          <mxGeometry y="406" width="180" height="26" as="geometry" />
        </mxCell>
        <mxCell id="14DQJMOeIjTHg0pRHyA--20" value="" style="endArrow=none;html=1;" parent="1" source="QjU3JXXY-2pWFs3UZOMo-106" target="14DQJMOeIjTHg0pRHyA--14" edge="1">
          <mxGeometry width="50" height="50" relative="1" as="geometry">
            <mxPoint x="400" y="1374" as="sourcePoint" />
            <mxPoint x="460" y="1330" as="targetPoint" />
          </mxGeometry>
        </mxCell>
        <mxCell id="HxADpOiNTDZusiQOzUtG-4" value="" style="endArrow=classic;html=1;" parent="1" source="_02DjtNMK4Eb3W8Fh0LB-1" target="14DQJMOeIjTHg0pRHyA--14" edge="1">
          <mxGeometry width="50" height="50" relative="1" as="geometry">
            <mxPoint x="-170" y="1200" as="sourcePoint" />
            <mxPoint x="-120" y="1150" as="targetPoint" />
            <Array as="points">
              <mxPoint x="1580" y="1050" />
            </Array>
          </mxGeometry>
        </mxCell>
        <mxCell id="HxADpOiNTDZusiQOzUtG-6" value="" style="endArrow=classic;html=1;" parent="1" source="_02DjtNMK4Eb3W8Fh0LB-1" target="_02DjtNMK4Eb3W8Fh0LB-7" edge="1">
          <mxGeometry width="50" height="50" relative="1" as="geometry">
            <mxPoint x="-310" y="1390" as="sourcePoint" />
            <mxPoint x="-280" y="1390" as="targetPoint" />
          </mxGeometry>
        </mxCell>
        <mxCell id="BQAjQg9iaMsQocKrUO1B-1" value="About Page" style="swimlane;html=1;fontStyle=0;childLayout=stackLayout;horizontal=1;startSize=26;fillColor=#60a917;horizontalStack=0;resizeParent=1;resizeLast=0;collapsible=1;marginBottom=0;swimlaneFillColor=#ffffff;rounded=0;shadow=0;comic=0;labelBackgroundColor=none;strokeWidth=1;fontFamily=Verdana;fontSize=15;align=center;strokeColor=#2D7600;fontColor=#ffffff;" vertex="1" parent="1">
          <mxGeometry x="-430" y="1210" width="160" height="240" as="geometry" />
        </mxCell>
        <mxCell id="BQAjQg9iaMsQocKrUO1B-2" value="Props:: None&lt;br&gt;" style="text;html=1;strokeColor=#82b366;align=left;verticalAlign=top;spacingLeft=4;spacingRight=4;whiteSpace=wrap;overflow=hidden;rotatable=0;points=[[0,0.5],[1,0.5]];portConstraint=eastwest;sketch=0;rounded=0;fillColor=#d5e8d4;" vertex="1" parent="BQAjQg9iaMsQocKrUO1B-1">
          <mxGeometry y="26" width="160" height="24" as="geometry" />
        </mxCell>
        <mxCell id="BQAjQg9iaMsQocKrUO1B-3" value="Child components:&lt;br&gt;&lt;ul&gt;&lt;li&gt;AboutMain&lt;/li&gt;&lt;/ul&gt;" style="text;html=1;strokeColor=#666666;align=left;verticalAlign=top;spacingLeft=4;spacingRight=4;whiteSpace=wrap;overflow=hidden;rotatable=0;points=[[0,0.5],[1,0.5]];portConstraint=eastwest;sketch=0;rounded=0;fillColor=#f5f5f5;fontColor=#333333;" vertex="1" parent="BQAjQg9iaMsQocKrUO1B-1">
          <mxGeometry y="50" width="160" height="100" as="geometry" />
        </mxCell>
        <mxCell id="BQAjQg9iaMsQocKrUO1B-4" value="State: None" style="text;html=1;strokeColor=#6c8ebf;fillColor=#dae8fc;align=left;verticalAlign=top;spacingLeft=4;spacingRight=4;whiteSpace=wrap;overflow=hidden;rotatable=0;points=[[0,0.5],[1,0.5]];portConstraint=eastwest;" vertex="1" parent="BQAjQg9iaMsQocKrUO1B-1">
          <mxGeometry y="150" width="160" height="30" as="geometry" />
        </mxCell>
        <mxCell id="BQAjQg9iaMsQocKrUO1B-5" value="Functions: None" style="text;html=1;strokeColor=#9673a6;fillColor=#e1d5e7;align=left;verticalAlign=top;spacingLeft=4;spacingRight=4;whiteSpace=wrap;overflow=hidden;rotatable=0;points=[[0,0.5],[1,0.5]];portConstraint=eastwest;" vertex="1" parent="BQAjQg9iaMsQocKrUO1B-1">
          <mxGeometry y="180" width="160" height="30" as="geometry" />
        </mxCell>
        <mxCell id="BQAjQg9iaMsQocKrUO1B-6" value="Variables: None&lt;br&gt;" style="text;html=1;strokeColor=#d79b00;fillColor=#ffe6cc;align=left;verticalAlign=top;spacingLeft=4;spacingRight=4;whiteSpace=wrap;overflow=hidden;rotatable=0;points=[[0,0.5],[1,0.5]];portConstraint=eastwest;" vertex="1" parent="BQAjQg9iaMsQocKrUO1B-1">
          <mxGeometry y="210" width="160" height="30" as="geometry" />
        </mxCell>
        <mxCell id="BQAjQg9iaMsQocKrUO1B-7" value="Pricing Page" style="swimlane;html=1;fontStyle=0;childLayout=stackLayout;horizontal=1;startSize=26;fillColor=#60a917;horizontalStack=0;resizeParent=1;resizeLast=0;collapsible=1;marginBottom=0;swimlaneFillColor=#ffffff;rounded=0;shadow=0;comic=0;labelBackgroundColor=none;strokeWidth=1;fontFamily=Verdana;fontSize=15;align=center;strokeColor=#2D7600;fontColor=#ffffff;" vertex="1" parent="1">
          <mxGeometry x="-670" y="1230" width="160" height="240" as="geometry" />
        </mxCell>
        <mxCell id="BQAjQg9iaMsQocKrUO1B-8" value="Props:: None&lt;br&gt;" style="text;html=1;strokeColor=#82b366;align=left;verticalAlign=top;spacingLeft=4;spacingRight=4;whiteSpace=wrap;overflow=hidden;rotatable=0;points=[[0,0.5],[1,0.5]];portConstraint=eastwest;sketch=0;rounded=0;fillColor=#d5e8d4;" vertex="1" parent="BQAjQg9iaMsQocKrUO1B-7">
          <mxGeometry y="26" width="160" height="24" as="geometry" />
        </mxCell>
        <mxCell id="BQAjQg9iaMsQocKrUO1B-9" value="Child components:&lt;br&gt;&lt;ul&gt;&lt;li&gt;PricingMain&lt;/li&gt;&lt;/ul&gt;" style="text;html=1;strokeColor=#666666;align=left;verticalAlign=top;spacingLeft=4;spacingRight=4;whiteSpace=wrap;overflow=hidden;rotatable=0;points=[[0,0.5],[1,0.5]];portConstraint=eastwest;sketch=0;rounded=0;fillColor=#f5f5f5;fontColor=#333333;" vertex="1" parent="BQAjQg9iaMsQocKrUO1B-7">
          <mxGeometry y="50" width="160" height="100" as="geometry" />
        </mxCell>
        <mxCell id="BQAjQg9iaMsQocKrUO1B-10" value="State: None" style="text;html=1;strokeColor=#6c8ebf;fillColor=#dae8fc;align=left;verticalAlign=top;spacingLeft=4;spacingRight=4;whiteSpace=wrap;overflow=hidden;rotatable=0;points=[[0,0.5],[1,0.5]];portConstraint=eastwest;" vertex="1" parent="BQAjQg9iaMsQocKrUO1B-7">
          <mxGeometry y="150" width="160" height="30" as="geometry" />
        </mxCell>
        <mxCell id="BQAjQg9iaMsQocKrUO1B-11" value="Functions: None" style="text;html=1;strokeColor=#9673a6;fillColor=#e1d5e7;align=left;verticalAlign=top;spacingLeft=4;spacingRight=4;whiteSpace=wrap;overflow=hidden;rotatable=0;points=[[0,0.5],[1,0.5]];portConstraint=eastwest;" vertex="1" parent="BQAjQg9iaMsQocKrUO1B-7">
          <mxGeometry y="180" width="160" height="30" as="geometry" />
        </mxCell>
        <mxCell id="BQAjQg9iaMsQocKrUO1B-12" value="Variables: None&lt;br&gt;" style="text;html=1;strokeColor=#d79b00;fillColor=#ffe6cc;align=left;verticalAlign=top;spacingLeft=4;spacingRight=4;whiteSpace=wrap;overflow=hidden;rotatable=0;points=[[0,0.5],[1,0.5]];portConstraint=eastwest;" vertex="1" parent="BQAjQg9iaMsQocKrUO1B-7">
          <mxGeometry y="210" width="160" height="30" as="geometry" />
        </mxCell>
        <mxCell id="BQAjQg9iaMsQocKrUO1B-13" value="HomeHeader" style="swimlane;html=1;fontStyle=0;childLayout=stackLayout;horizontal=1;startSize=26;fillColor=#60a917;horizontalStack=0;resizeParent=1;resizeLast=0;collapsible=1;marginBottom=0;swimlaneFillColor=#ffffff;rounded=0;shadow=0;comic=0;labelBackgroundColor=none;strokeWidth=1;fontFamily=Verdana;fontSize=15;align=center;strokeColor=#2D7600;fontColor=#ffffff;" vertex="1" parent="1">
          <mxGeometry x="-520" y="940" width="160" height="240" as="geometry" />
        </mxCell>
        <mxCell id="BQAjQg9iaMsQocKrUO1B-14" value="Props:: None&lt;br&gt;" style="text;html=1;strokeColor=#82b366;align=left;verticalAlign=top;spacingLeft=4;spacingRight=4;whiteSpace=wrap;overflow=hidden;rotatable=0;points=[[0,0.5],[1,0.5]];portConstraint=eastwest;sketch=0;rounded=0;fillColor=#d5e8d4;" vertex="1" parent="BQAjQg9iaMsQocKrUO1B-13">
          <mxGeometry y="26" width="160" height="24" as="geometry" />
        </mxCell>
        <mxCell id="BQAjQg9iaMsQocKrUO1B-15" value="Child components:&lt;br&gt;&lt;ul&gt;&lt;li&gt;LoginComponent&lt;/li&gt;&lt;/ul&gt;" style="text;html=1;strokeColor=#666666;align=left;verticalAlign=top;spacingLeft=4;spacingRight=4;whiteSpace=wrap;overflow=hidden;rotatable=0;points=[[0,0.5],[1,0.5]];portConstraint=eastwest;sketch=0;rounded=0;fillColor=#f5f5f5;fontColor=#333333;" vertex="1" parent="BQAjQg9iaMsQocKrUO1B-13">
          <mxGeometry y="50" width="160" height="100" as="geometry" />
        </mxCell>
        <mxCell id="BQAjQg9iaMsQocKrUO1B-16" value="State: None" style="text;html=1;strokeColor=#6c8ebf;fillColor=#dae8fc;align=left;verticalAlign=top;spacingLeft=4;spacingRight=4;whiteSpace=wrap;overflow=hidden;rotatable=0;points=[[0,0.5],[1,0.5]];portConstraint=eastwest;" vertex="1" parent="BQAjQg9iaMsQocKrUO1B-13">
          <mxGeometry y="150" width="160" height="30" as="geometry" />
        </mxCell>
        <mxCell id="BQAjQg9iaMsQocKrUO1B-17" value="Functions: None" style="text;html=1;strokeColor=#9673a6;fillColor=#e1d5e7;align=left;verticalAlign=top;spacingLeft=4;spacingRight=4;whiteSpace=wrap;overflow=hidden;rotatable=0;points=[[0,0.5],[1,0.5]];portConstraint=eastwest;" vertex="1" parent="BQAjQg9iaMsQocKrUO1B-13">
          <mxGeometry y="180" width="160" height="30" as="geometry" />
        </mxCell>
        <mxCell id="BQAjQg9iaMsQocKrUO1B-18" value="Variables: None&lt;br&gt;" style="text;html=1;strokeColor=#d79b00;fillColor=#ffe6cc;align=left;verticalAlign=top;spacingLeft=4;spacingRight=4;whiteSpace=wrap;overflow=hidden;rotatable=0;points=[[0,0.5],[1,0.5]];portConstraint=eastwest;" vertex="1" parent="BQAjQg9iaMsQocKrUO1B-13">
          <mxGeometry y="210" width="160" height="30" as="geometry" />
        </mxCell>
        <mxCell id="BQAjQg9iaMsQocKrUO1B-19" value="" style="endArrow=classic;endFill=1;endSize=12;html=1;" edge="1" parent="1" source="BQAjQg9iaMsQocKrUO1B-13" target="BQAjQg9iaMsQocKrUO1B-7">
          <mxGeometry width="160" relative="1" as="geometry">
            <mxPoint x="80.00000000000045" y="1090" as="sourcePoint" />
            <mxPoint x="80.00000000000045" y="950" as="targetPoint" />
          </mxGeometry>
        </mxCell>
        <mxCell id="BQAjQg9iaMsQocKrUO1B-20" value="LinksTo" style="edgeLabel;html=1;align=center;verticalAlign=middle;resizable=0;points=[];" vertex="1" connectable="0" parent="BQAjQg9iaMsQocKrUO1B-19">
          <mxGeometry x="-0.2613" relative="1" as="geometry">
            <mxPoint x="-28" as="offset" />
          </mxGeometry>
        </mxCell>
        <mxCell id="BQAjQg9iaMsQocKrUO1B-21" value="" style="endArrow=classic;endFill=1;endSize=12;html=1;" edge="1" parent="1" source="BQAjQg9iaMsQocKrUO1B-13" target="BQAjQg9iaMsQocKrUO1B-1">
          <mxGeometry width="160" relative="1" as="geometry">
            <mxPoint x="180" y="1090" as="sourcePoint" />
            <mxPoint x="-70" y="1090" as="targetPoint" />
          </mxGeometry>
        </mxCell>
        <mxCell id="BQAjQg9iaMsQocKrUO1B-22" value="LinksTo" style="edgeLabel;html=1;align=center;verticalAlign=middle;resizable=0;points=[];" vertex="1" connectable="0" parent="BQAjQg9iaMsQocKrUO1B-21">
          <mxGeometry x="-0.2613" relative="1" as="geometry">
            <mxPoint x="-28" as="offset" />
          </mxGeometry>
        </mxCell>
        <mxCell id="BQAjQg9iaMsQocKrUO1B-23" value="" style="endArrow=classic;html=1;" edge="1" parent="1" source="QjU3JXXY-2pWFs3UZOMo-42" target="BQAjQg9iaMsQocKrUO1B-13">
          <mxGeometry width="50" height="50" relative="1" as="geometry">
            <mxPoint x="430" y="1208.2000000000003" as="sourcePoint" />
            <mxPoint x="-10" y="1010" as="targetPoint" />
          </mxGeometry>
        </mxCell>
        <mxCell id="BQAjQg9iaMsQocKrUO1B-26" value="HomeFooter" style="swimlane;html=1;fontStyle=0;childLayout=stackLayout;horizontal=1;startSize=26;fillColor=#60a917;horizontalStack=0;resizeParent=1;resizeLast=0;collapsible=1;marginBottom=0;swimlaneFillColor=#ffffff;rounded=0;shadow=0;comic=0;labelBackgroundColor=none;strokeWidth=1;fontFamily=Verdana;fontSize=15;align=center;strokeColor=#2D7600;fontColor=#ffffff;" vertex="1" parent="1">
          <mxGeometry x="-670" y="1580" width="160" height="240" as="geometry" />
        </mxCell>
        <mxCell id="BQAjQg9iaMsQocKrUO1B-27" value="Props:: None&lt;br&gt;" style="text;html=1;strokeColor=#82b366;align=left;verticalAlign=top;spacingLeft=4;spacingRight=4;whiteSpace=wrap;overflow=hidden;rotatable=0;points=[[0,0.5],[1,0.5]];portConstraint=eastwest;sketch=0;rounded=0;fillColor=#d5e8d4;" vertex="1" parent="BQAjQg9iaMsQocKrUO1B-26">
          <mxGeometry y="26" width="160" height="24" as="geometry" />
        </mxCell>
        <mxCell id="BQAjQg9iaMsQocKrUO1B-28" value="Child components:" style="text;html=1;strokeColor=#666666;align=left;verticalAlign=top;spacingLeft=4;spacingRight=4;whiteSpace=wrap;overflow=hidden;rotatable=0;points=[[0,0.5],[1,0.5]];portConstraint=eastwest;sketch=0;rounded=0;fillColor=#f5f5f5;fontColor=#333333;" vertex="1" parent="BQAjQg9iaMsQocKrUO1B-26">
          <mxGeometry y="50" width="160" height="100" as="geometry" />
        </mxCell>
        <mxCell id="BQAjQg9iaMsQocKrUO1B-29" value="State: None" style="text;html=1;strokeColor=#6c8ebf;fillColor=#dae8fc;align=left;verticalAlign=top;spacingLeft=4;spacingRight=4;whiteSpace=wrap;overflow=hidden;rotatable=0;points=[[0,0.5],[1,0.5]];portConstraint=eastwest;" vertex="1" parent="BQAjQg9iaMsQocKrUO1B-26">
          <mxGeometry y="150" width="160" height="30" as="geometry" />
        </mxCell>
        <mxCell id="BQAjQg9iaMsQocKrUO1B-30" value="Functions: None" style="text;html=1;strokeColor=#9673a6;fillColor=#e1d5e7;align=left;verticalAlign=top;spacingLeft=4;spacingRight=4;whiteSpace=wrap;overflow=hidden;rotatable=0;points=[[0,0.5],[1,0.5]];portConstraint=eastwest;" vertex="1" parent="BQAjQg9iaMsQocKrUO1B-26">
          <mxGeometry y="180" width="160" height="30" as="geometry" />
        </mxCell>
        <mxCell id="BQAjQg9iaMsQocKrUO1B-31" value="Variables: None&lt;br&gt;" style="text;html=1;strokeColor=#d79b00;fillColor=#ffe6cc;align=left;verticalAlign=top;spacingLeft=4;spacingRight=4;whiteSpace=wrap;overflow=hidden;rotatable=0;points=[[0,0.5],[1,0.5]];portConstraint=eastwest;" vertex="1" parent="BQAjQg9iaMsQocKrUO1B-26">
          <mxGeometry y="210" width="160" height="30" as="geometry" />
        </mxCell>
        <mxCell id="BQAjQg9iaMsQocKrUO1B-32" value="Terms Of Use" style="swimlane;html=1;fontStyle=0;childLayout=stackLayout;horizontal=1;startSize=26;fillColor=#60a917;horizontalStack=0;resizeParent=1;resizeLast=0;collapsible=1;marginBottom=0;swimlaneFillColor=#ffffff;rounded=0;shadow=0;comic=0;labelBackgroundColor=none;strokeWidth=1;fontFamily=Verdana;fontSize=15;align=center;strokeColor=#2D7600;fontColor=#ffffff;" vertex="1" parent="1">
          <mxGeometry x="-1010" y="1930" width="160" height="240" as="geometry" />
        </mxCell>
        <mxCell id="BQAjQg9iaMsQocKrUO1B-33" value="Props:: None&lt;br&gt;" style="text;html=1;strokeColor=#82b366;align=left;verticalAlign=top;spacingLeft=4;spacingRight=4;whiteSpace=wrap;overflow=hidden;rotatable=0;points=[[0,0.5],[1,0.5]];portConstraint=eastwest;sketch=0;rounded=0;fillColor=#d5e8d4;" vertex="1" parent="BQAjQg9iaMsQocKrUO1B-32">
          <mxGeometry y="26" width="160" height="24" as="geometry" />
        </mxCell>
        <mxCell id="BQAjQg9iaMsQocKrUO1B-34" value="Child components:&lt;br&gt;&lt;ul&gt;&lt;li&gt;TermsMain&lt;/li&gt;&lt;/ul&gt;" style="text;html=1;strokeColor=#666666;align=left;verticalAlign=top;spacingLeft=4;spacingRight=4;whiteSpace=wrap;overflow=hidden;rotatable=0;points=[[0,0.5],[1,0.5]];portConstraint=eastwest;sketch=0;rounded=0;fillColor=#f5f5f5;fontColor=#333333;" vertex="1" parent="BQAjQg9iaMsQocKrUO1B-32">
          <mxGeometry y="50" width="160" height="100" as="geometry" />
        </mxCell>
        <mxCell id="BQAjQg9iaMsQocKrUO1B-35" value="State: None" style="text;html=1;strokeColor=#6c8ebf;fillColor=#dae8fc;align=left;verticalAlign=top;spacingLeft=4;spacingRight=4;whiteSpace=wrap;overflow=hidden;rotatable=0;points=[[0,0.5],[1,0.5]];portConstraint=eastwest;" vertex="1" parent="BQAjQg9iaMsQocKrUO1B-32">
          <mxGeometry y="150" width="160" height="30" as="geometry" />
        </mxCell>
        <mxCell id="BQAjQg9iaMsQocKrUO1B-36" value="Functions: None" style="text;html=1;strokeColor=#9673a6;fillColor=#e1d5e7;align=left;verticalAlign=top;spacingLeft=4;spacingRight=4;whiteSpace=wrap;overflow=hidden;rotatable=0;points=[[0,0.5],[1,0.5]];portConstraint=eastwest;" vertex="1" parent="BQAjQg9iaMsQocKrUO1B-32">
          <mxGeometry y="180" width="160" height="30" as="geometry" />
        </mxCell>
        <mxCell id="BQAjQg9iaMsQocKrUO1B-37" value="Variables: None&lt;br&gt;" style="text;html=1;strokeColor=#d79b00;fillColor=#ffe6cc;align=left;verticalAlign=top;spacingLeft=4;spacingRight=4;whiteSpace=wrap;overflow=hidden;rotatable=0;points=[[0,0.5],[1,0.5]];portConstraint=eastwest;" vertex="1" parent="BQAjQg9iaMsQocKrUO1B-32">
          <mxGeometry y="210" width="160" height="30" as="geometry" />
        </mxCell>
        <mxCell id="BQAjQg9iaMsQocKrUO1B-38" value="Privacy Policy" style="swimlane;html=1;fontStyle=0;childLayout=stackLayout;horizontal=1;startSize=26;fillColor=#60a917;horizontalStack=0;resizeParent=1;resizeLast=0;collapsible=1;marginBottom=0;swimlaneFillColor=#ffffff;rounded=0;shadow=0;comic=0;labelBackgroundColor=none;strokeWidth=1;fontFamily=Verdana;fontSize=15;align=center;strokeColor=#2D7600;fontColor=#ffffff;" vertex="1" parent="1">
          <mxGeometry x="-780" y="1910" width="160" height="240" as="geometry" />
        </mxCell>
        <mxCell id="BQAjQg9iaMsQocKrUO1B-39" value="Props:: None&lt;br&gt;" style="text;html=1;strokeColor=#82b366;align=left;verticalAlign=top;spacingLeft=4;spacingRight=4;whiteSpace=wrap;overflow=hidden;rotatable=0;points=[[0,0.5],[1,0.5]];portConstraint=eastwest;sketch=0;rounded=0;fillColor=#d5e8d4;" vertex="1" parent="BQAjQg9iaMsQocKrUO1B-38">
          <mxGeometry y="26" width="160" height="24" as="geometry" />
        </mxCell>
        <mxCell id="BQAjQg9iaMsQocKrUO1B-40" value="Child components:&lt;br&gt;&lt;ul&gt;&lt;li&gt;PrivacyMain&lt;/li&gt;&lt;/ul&gt;" style="text;html=1;strokeColor=#666666;align=left;verticalAlign=top;spacingLeft=4;spacingRight=4;whiteSpace=wrap;overflow=hidden;rotatable=0;points=[[0,0.5],[1,0.5]];portConstraint=eastwest;sketch=0;rounded=0;fillColor=#f5f5f5;fontColor=#333333;" vertex="1" parent="BQAjQg9iaMsQocKrUO1B-38">
          <mxGeometry y="50" width="160" height="100" as="geometry" />
        </mxCell>
        <mxCell id="BQAjQg9iaMsQocKrUO1B-41" value="State: None" style="text;html=1;strokeColor=#6c8ebf;fillColor=#dae8fc;align=left;verticalAlign=top;spacingLeft=4;spacingRight=4;whiteSpace=wrap;overflow=hidden;rotatable=0;points=[[0,0.5],[1,0.5]];portConstraint=eastwest;" vertex="1" parent="BQAjQg9iaMsQocKrUO1B-38">
          <mxGeometry y="150" width="160" height="30" as="geometry" />
        </mxCell>
        <mxCell id="BQAjQg9iaMsQocKrUO1B-42" value="Functions: None" style="text;html=1;strokeColor=#9673a6;fillColor=#e1d5e7;align=left;verticalAlign=top;spacingLeft=4;spacingRight=4;whiteSpace=wrap;overflow=hidden;rotatable=0;points=[[0,0.5],[1,0.5]];portConstraint=eastwest;" vertex="1" parent="BQAjQg9iaMsQocKrUO1B-38">
          <mxGeometry y="180" width="160" height="30" as="geometry" />
        </mxCell>
        <mxCell id="BQAjQg9iaMsQocKrUO1B-43" value="Variables: None&lt;br&gt;" style="text;html=1;strokeColor=#d79b00;fillColor=#ffe6cc;align=left;verticalAlign=top;spacingLeft=4;spacingRight=4;whiteSpace=wrap;overflow=hidden;rotatable=0;points=[[0,0.5],[1,0.5]];portConstraint=eastwest;" vertex="1" parent="BQAjQg9iaMsQocKrUO1B-38">
          <mxGeometry y="210" width="160" height="30" as="geometry" />
        </mxCell>
        <mxCell id="BQAjQg9iaMsQocKrUO1B-44" value="Sitemap" style="swimlane;html=1;fontStyle=0;childLayout=stackLayout;horizontal=1;startSize=26;fillColor=#60a917;horizontalStack=0;resizeParent=1;resizeLast=0;collapsible=1;marginBottom=0;swimlaneFillColor=#ffffff;rounded=0;shadow=0;comic=0;labelBackgroundColor=none;strokeWidth=1;fontFamily=Verdana;fontSize=15;align=center;strokeColor=#2D7600;fontColor=#ffffff;" vertex="1" parent="1">
          <mxGeometry x="-580" y="1910" width="160" height="240" as="geometry" />
        </mxCell>
        <mxCell id="BQAjQg9iaMsQocKrUO1B-45" value="Props:: None&lt;br&gt;" style="text;html=1;strokeColor=#82b366;align=left;verticalAlign=top;spacingLeft=4;spacingRight=4;whiteSpace=wrap;overflow=hidden;rotatable=0;points=[[0,0.5],[1,0.5]];portConstraint=eastwest;sketch=0;rounded=0;fillColor=#d5e8d4;" vertex="1" parent="BQAjQg9iaMsQocKrUO1B-44">
          <mxGeometry y="26" width="160" height="24" as="geometry" />
        </mxCell>
        <mxCell id="BQAjQg9iaMsQocKrUO1B-46" value="Child components:&lt;br&gt;&lt;ul&gt;&lt;li&gt;SitemapMain&lt;/li&gt;&lt;/ul&gt;" style="text;html=1;strokeColor=#666666;align=left;verticalAlign=top;spacingLeft=4;spacingRight=4;whiteSpace=wrap;overflow=hidden;rotatable=0;points=[[0,0.5],[1,0.5]];portConstraint=eastwest;sketch=0;rounded=0;fillColor=#f5f5f5;fontColor=#333333;" vertex="1" parent="BQAjQg9iaMsQocKrUO1B-44">
          <mxGeometry y="50" width="160" height="100" as="geometry" />
        </mxCell>
        <mxCell id="BQAjQg9iaMsQocKrUO1B-47" value="State: None" style="text;html=1;strokeColor=#6c8ebf;fillColor=#dae8fc;align=left;verticalAlign=top;spacingLeft=4;spacingRight=4;whiteSpace=wrap;overflow=hidden;rotatable=0;points=[[0,0.5],[1,0.5]];portConstraint=eastwest;" vertex="1" parent="BQAjQg9iaMsQocKrUO1B-44">
          <mxGeometry y="150" width="160" height="30" as="geometry" />
        </mxCell>
        <mxCell id="BQAjQg9iaMsQocKrUO1B-48" value="Functions: None" style="text;html=1;strokeColor=#9673a6;fillColor=#e1d5e7;align=left;verticalAlign=top;spacingLeft=4;spacingRight=4;whiteSpace=wrap;overflow=hidden;rotatable=0;points=[[0,0.5],[1,0.5]];portConstraint=eastwest;" vertex="1" parent="BQAjQg9iaMsQocKrUO1B-44">
          <mxGeometry y="180" width="160" height="30" as="geometry" />
        </mxCell>
        <mxCell id="BQAjQg9iaMsQocKrUO1B-49" value="Variables: None&lt;br&gt;" style="text;html=1;strokeColor=#d79b00;fillColor=#ffe6cc;align=left;verticalAlign=top;spacingLeft=4;spacingRight=4;whiteSpace=wrap;overflow=hidden;rotatable=0;points=[[0,0.5],[1,0.5]];portConstraint=eastwest;" vertex="1" parent="BQAjQg9iaMsQocKrUO1B-44">
          <mxGeometry y="210" width="160" height="30" as="geometry" />
        </mxCell>
        <mxCell id="BQAjQg9iaMsQocKrUO1B-50" value="" style="endArrow=classic;html=1;" edge="1" parent="1" source="QjU3JXXY-2pWFs3UZOMo-42" target="BQAjQg9iaMsQocKrUO1B-26">
          <mxGeometry width="50" height="50" relative="1" as="geometry">
            <mxPoint x="340" y="1414.2352941176473" as="sourcePoint" />
            <mxPoint x="250" y="980" as="targetPoint" />
          </mxGeometry>
        </mxCell>
        <mxCell id="BQAjQg9iaMsQocKrUO1B-52" value="" style="endArrow=classic;endFill=1;endSize=12;html=1;" edge="1" parent="1" source="BQAjQg9iaMsQocKrUO1B-26" target="BQAjQg9iaMsQocKrUO1B-32">
          <mxGeometry width="160" relative="1" as="geometry">
            <mxPoint x="-510" y="1070" as="sourcePoint" />
            <mxPoint x="-610" y="1070" as="targetPoint" />
          </mxGeometry>
        </mxCell>
        <mxCell id="BQAjQg9iaMsQocKrUO1B-53" value="LinksTo" style="edgeLabel;html=1;align=center;verticalAlign=middle;resizable=0;points=[];" vertex="1" connectable="0" parent="BQAjQg9iaMsQocKrUO1B-52">
          <mxGeometry x="-0.2613" relative="1" as="geometry">
            <mxPoint x="-28" as="offset" />
          </mxGeometry>
        </mxCell>
        <mxCell id="BQAjQg9iaMsQocKrUO1B-54" value="" style="endArrow=classic;endFill=1;endSize=12;html=1;" edge="1" parent="1" source="BQAjQg9iaMsQocKrUO1B-26" target="BQAjQg9iaMsQocKrUO1B-38">
          <mxGeometry width="160" relative="1" as="geometry">
            <mxPoint x="130" y="1070" as="sourcePoint" />
            <mxPoint x="-10" y="1070" as="targetPoint" />
          </mxGeometry>
        </mxCell>
        <mxCell id="BQAjQg9iaMsQocKrUO1B-55" value="LinksTo" style="edgeLabel;html=1;align=center;verticalAlign=middle;resizable=0;points=[];" vertex="1" connectable="0" parent="BQAjQg9iaMsQocKrUO1B-54">
          <mxGeometry x="-0.2613" relative="1" as="geometry">
            <mxPoint x="-28" as="offset" />
          </mxGeometry>
        </mxCell>
        <mxCell id="BQAjQg9iaMsQocKrUO1B-56" value="" style="endArrow=classic;endFill=1;endSize=12;html=1;" edge="1" parent="1" source="BQAjQg9iaMsQocKrUO1B-26" target="BQAjQg9iaMsQocKrUO1B-44">
          <mxGeometry width="160" relative="1" as="geometry">
            <mxPoint x="130" y="1122.830188679245" as="sourcePoint" />
            <mxPoint x="-240" y="1367.1698113207544" as="targetPoint" />
          </mxGeometry>
        </mxCell>
        <mxCell id="BQAjQg9iaMsQocKrUO1B-57" value="LinksTo" style="edgeLabel;html=1;align=center;verticalAlign=middle;resizable=0;points=[];" vertex="1" connectable="0" parent="BQAjQg9iaMsQocKrUO1B-56">
          <mxGeometry x="-0.2613" relative="1" as="geometry">
            <mxPoint x="-28" as="offset" />
          </mxGeometry>
        </mxCell>
        <mxCell id="BQAjQg9iaMsQocKrUO1B-64" value="Trial Inquiry" style="swimlane;html=1;fontStyle=0;childLayout=stackLayout;horizontal=1;startSize=26;fillColor=#60a917;horizontalStack=0;resizeParent=1;resizeLast=0;collapsible=1;marginBottom=0;swimlaneFillColor=#ffffff;rounded=0;shadow=0;comic=0;labelBackgroundColor=none;strokeWidth=1;fontFamily=Verdana;fontSize=15;align=center;strokeColor=#2D7600;fontColor=#ffffff;" vertex="1" parent="1">
          <mxGeometry x="-300" y="2240" width="160" height="240" as="geometry" />
        </mxCell>
        <mxCell id="BQAjQg9iaMsQocKrUO1B-65" value="Props:: None&lt;br&gt;" style="text;html=1;strokeColor=#82b366;align=left;verticalAlign=top;spacingLeft=4;spacingRight=4;whiteSpace=wrap;overflow=hidden;rotatable=0;points=[[0,0.5],[1,0.5]];portConstraint=eastwest;sketch=0;rounded=0;fillColor=#d5e8d4;" vertex="1" parent="BQAjQg9iaMsQocKrUO1B-64">
          <mxGeometry y="26" width="160" height="24" as="geometry" />
        </mxCell>
        <mxCell id="BQAjQg9iaMsQocKrUO1B-66" value="Child components:&lt;br&gt;&lt;ul&gt;&lt;li&gt;TrialMain&lt;/li&gt;&lt;/ul&gt;" style="text;html=1;strokeColor=#666666;align=left;verticalAlign=top;spacingLeft=4;spacingRight=4;whiteSpace=wrap;overflow=hidden;rotatable=0;points=[[0,0.5],[1,0.5]];portConstraint=eastwest;sketch=0;rounded=0;fillColor=#f5f5f5;fontColor=#333333;" vertex="1" parent="BQAjQg9iaMsQocKrUO1B-64">
          <mxGeometry y="50" width="160" height="100" as="geometry" />
        </mxCell>
        <mxCell id="BQAjQg9iaMsQocKrUO1B-67" value="State: None" style="text;html=1;strokeColor=#6c8ebf;fillColor=#dae8fc;align=left;verticalAlign=top;spacingLeft=4;spacingRight=4;whiteSpace=wrap;overflow=hidden;rotatable=0;points=[[0,0.5],[1,0.5]];portConstraint=eastwest;" vertex="1" parent="BQAjQg9iaMsQocKrUO1B-64">
          <mxGeometry y="150" width="160" height="30" as="geometry" />
        </mxCell>
        <mxCell id="BQAjQg9iaMsQocKrUO1B-68" value="Functions: None" style="text;html=1;strokeColor=#9673a6;fillColor=#e1d5e7;align=left;verticalAlign=top;spacingLeft=4;spacingRight=4;whiteSpace=wrap;overflow=hidden;rotatable=0;points=[[0,0.5],[1,0.5]];portConstraint=eastwest;" vertex="1" parent="BQAjQg9iaMsQocKrUO1B-64">
          <mxGeometry y="180" width="160" height="30" as="geometry" />
        </mxCell>
        <mxCell id="BQAjQg9iaMsQocKrUO1B-69" value="Variables: None&lt;br&gt;" style="text;html=1;strokeColor=#d79b00;fillColor=#ffe6cc;align=left;verticalAlign=top;spacingLeft=4;spacingRight=4;whiteSpace=wrap;overflow=hidden;rotatable=0;points=[[0,0.5],[1,0.5]];portConstraint=eastwest;" vertex="1" parent="BQAjQg9iaMsQocKrUO1B-64">
          <mxGeometry y="210" width="160" height="30" as="geometry" />
        </mxCell>
        <mxCell id="BQAjQg9iaMsQocKrUO1B-70" value="" style="endArrow=classic;html=1;" edge="1" parent="1" source="QjU3JXXY-2pWFs3UZOMo-42" target="BQAjQg9iaMsQocKrUO1B-64">
          <mxGeometry width="50" height="50" relative="1" as="geometry">
            <mxPoint x="340" y="1470.7999999999997" as="sourcePoint" />
            <mxPoint x="-180" y="2280" as="targetPoint" />
          </mxGeometry>
        </mxCell>
        <mxCell id="BQAjQg9iaMsQocKrUO1B-71" value="LinksTo" style="edgeLabel;html=1;align=center;verticalAlign=middle;resizable=0;points=[];" vertex="1" connectable="0" parent="BQAjQg9iaMsQocKrUO1B-70">
          <mxGeometry x="-0.1003" y="8" relative="1" as="geometry">
            <mxPoint y="-1" as="offset" />
          </mxGeometry>
        </mxCell>
        <mxCell id="BQAjQg9iaMsQocKrUO1B-72" value="" style="endArrow=classic;html=1;" edge="1" parent="1" source="QjU3JXXY-2pWFs3UZOMo-60" target="BQAjQg9iaMsQocKrUO1B-73">
          <mxGeometry width="50" height="50" relative="1" as="geometry">
            <mxPoint x="340" y="1414.2352941176468" as="sourcePoint" />
            <mxPoint x="920" y="1550" as="targetPoint" />
          </mxGeometry>
        </mxCell>
        <mxCell id="BQAjQg9iaMsQocKrUO1B-79" value="RedirectsTo" style="edgeLabel;html=1;align=center;verticalAlign=middle;resizable=0;points=[];" vertex="1" connectable="0" parent="BQAjQg9iaMsQocKrUO1B-72">
          <mxGeometry x="0.2783" relative="1" as="geometry">
            <mxPoint y="1" as="offset" />
          </mxGeometry>
        </mxCell>
        <mxCell id="BQAjQg9iaMsQocKrUO1B-73" value="Account Creation" style="swimlane;html=1;fontStyle=0;childLayout=stackLayout;horizontal=1;startSize=26;fillColor=#60a917;horizontalStack=0;resizeParent=1;resizeLast=0;collapsible=1;marginBottom=0;swimlaneFillColor=#ffffff;rounded=0;shadow=0;comic=0;labelBackgroundColor=none;strokeWidth=1;fontFamily=Verdana;fontSize=15;align=center;strokeColor=#2D7600;fontColor=#ffffff;" vertex="1" parent="1">
          <mxGeometry x="1000" y="1190" width="160" height="240" as="geometry" />
        </mxCell>
        <mxCell id="BQAjQg9iaMsQocKrUO1B-74" value="Props:: None&lt;br&gt;" style="text;html=1;strokeColor=#82b366;align=left;verticalAlign=top;spacingLeft=4;spacingRight=4;whiteSpace=wrap;overflow=hidden;rotatable=0;points=[[0,0.5],[1,0.5]];portConstraint=eastwest;sketch=0;rounded=0;fillColor=#d5e8d4;" vertex="1" parent="BQAjQg9iaMsQocKrUO1B-73">
          <mxGeometry y="26" width="160" height="24" as="geometry" />
        </mxCell>
        <mxCell id="BQAjQg9iaMsQocKrUO1B-75" value="Child components:&lt;br&gt;&lt;ul&gt;&lt;li&gt;AccountCreationMain&lt;/li&gt;&lt;/ul&gt;" style="text;html=1;strokeColor=#666666;align=left;verticalAlign=top;spacingLeft=4;spacingRight=4;whiteSpace=wrap;overflow=hidden;rotatable=0;points=[[0,0.5],[1,0.5]];portConstraint=eastwest;sketch=0;rounded=0;fillColor=#f5f5f5;fontColor=#333333;" vertex="1" parent="BQAjQg9iaMsQocKrUO1B-73">
          <mxGeometry y="50" width="160" height="100" as="geometry" />
        </mxCell>
        <mxCell id="BQAjQg9iaMsQocKrUO1B-76" value="State: None" style="text;html=1;strokeColor=#6c8ebf;fillColor=#dae8fc;align=left;verticalAlign=top;spacingLeft=4;spacingRight=4;whiteSpace=wrap;overflow=hidden;rotatable=0;points=[[0,0.5],[1,0.5]];portConstraint=eastwest;" vertex="1" parent="BQAjQg9iaMsQocKrUO1B-73">
          <mxGeometry y="150" width="160" height="30" as="geometry" />
        </mxCell>
        <mxCell id="BQAjQg9iaMsQocKrUO1B-77" value="Functions: None" style="text;html=1;strokeColor=#9673a6;fillColor=#e1d5e7;align=left;verticalAlign=top;spacingLeft=4;spacingRight=4;whiteSpace=wrap;overflow=hidden;rotatable=0;points=[[0,0.5],[1,0.5]];portConstraint=eastwest;" vertex="1" parent="BQAjQg9iaMsQocKrUO1B-73">
          <mxGeometry y="180" width="160" height="30" as="geometry" />
        </mxCell>
        <mxCell id="BQAjQg9iaMsQocKrUO1B-78" value="Variables: None&lt;br&gt;" style="text;html=1;strokeColor=#d79b00;fillColor=#ffe6cc;align=left;verticalAlign=top;spacingLeft=4;spacingRight=4;whiteSpace=wrap;overflow=hidden;rotatable=0;points=[[0,0.5],[1,0.5]];portConstraint=eastwest;" vertex="1" parent="BQAjQg9iaMsQocKrUO1B-73">
          <mxGeometry y="210" width="160" height="30" as="geometry" />
        </mxCell>
        <mxCell id="BQAjQg9iaMsQocKrUO1B-80" value="" style="endArrow=classic;html=1;" edge="1" parent="1" source="BQAjQg9iaMsQocKrUO1B-73" target="BQAjQg9iaMsQocKrUO1B-127">
          <mxGeometry width="50" height="50" relative="1" as="geometry">
            <mxPoint x="690" y="1385.5555555555557" as="sourcePoint" />
            <mxPoint x="890" y="1224.4444444444443" as="targetPoint" />
          </mxGeometry>
        </mxCell>
        <mxCell id="BQAjQg9iaMsQocKrUO1B-81" value="RedirectsTo" style="edgeLabel;html=1;align=center;verticalAlign=middle;resizable=0;points=[];" vertex="1" connectable="0" parent="BQAjQg9iaMsQocKrUO1B-80">
          <mxGeometry x="0.2783" relative="1" as="geometry">
            <mxPoint y="1" as="offset" />
          </mxGeometry>
        </mxCell>
        <UserObject label="PublishMenu" id="BQAjQg9iaMsQocKrUO1B-86">
          <mxCell style="swimlane;html=1;fontStyle=0;childLayout=stackLayout;horizontal=1;startSize=26;fillColor=#60a917;horizontalStack=0;resizeParent=1;resizeLast=0;collapsible=1;marginBottom=0;swimlaneFillColor=#ffffff;rounded=0;shadow=0;comic=0;labelBackgroundColor=none;strokeWidth=1;fontFamily=Verdana;fontSize=15;align=center;strokeColor=#2D7600;fontColor=#ffffff;" vertex="1" parent="1">
            <mxGeometry x="1060" y="3010" width="180" height="252" as="geometry" />
          </mxCell>
        </UserObject>
        <mxCell id="BQAjQg9iaMsQocKrUO1B-87" value="Props:&lt;br&gt;&lt;ul&gt;&lt;li&gt;slug&lt;/li&gt;&lt;/ul&gt;" style="text;html=1;strokeColor=#82b366;align=left;verticalAlign=top;spacingLeft=4;spacingRight=4;whiteSpace=wrap;overflow=hidden;rotatable=0;points=[[0,0.5],[1,0.5]];portConstraint=eastwest;sketch=0;rounded=0;fillColor=#d5e8d4;" vertex="1" parent="BQAjQg9iaMsQocKrUO1B-86">
          <mxGeometry y="26" width="180" height="64" as="geometry" />
        </mxCell>
        <mxCell id="BQAjQg9iaMsQocKrUO1B-88" value="&lt;div&gt;Child components: none&lt;/div&gt;" style="text;html=1;strokeColor=#666666;align=left;verticalAlign=top;spacingLeft=4;spacingRight=4;whiteSpace=wrap;overflow=hidden;rotatable=0;points=[[0,0.5],[1,0.5]];portConstraint=eastwest;sketch=0;rounded=0;fillColor=#f5f5f5;fontColor=#333333;" vertex="1" parent="BQAjQg9iaMsQocKrUO1B-86">
          <mxGeometry y="90" width="180" height="30" as="geometry" />
        </mxCell>
        <mxCell id="BQAjQg9iaMsQocKrUO1B-89" value="State: Selected section, one of the following or none:&lt;br&gt;&lt;ul style=&quot;color: rgb(51 , 51 , 51)&quot;&gt;&lt;li&gt;Products&lt;/li&gt;&lt;li&gt;Videos&lt;/li&gt;&lt;/ul&gt;" style="text;html=1;strokeColor=#6c8ebf;fillColor=#dae8fc;align=left;verticalAlign=top;spacingLeft=4;spacingRight=4;whiteSpace=wrap;overflow=hidden;rotatable=0;points=[[0,0.5],[1,0.5]];portConstraint=eastwest;" vertex="1" parent="BQAjQg9iaMsQocKrUO1B-86">
          <mxGeometry y="120" width="180" height="80" as="geometry" />
        </mxCell>
        <mxCell id="BQAjQg9iaMsQocKrUO1B-90" value="Functions&lt;br&gt;" style="text;html=1;strokeColor=#9673a6;fillColor=#e1d5e7;align=left;verticalAlign=top;spacingLeft=4;spacingRight=4;whiteSpace=wrap;overflow=hidden;rotatable=0;points=[[0,0.5],[1,0.5]];portConstraint=eastwest;" vertex="1" parent="BQAjQg9iaMsQocKrUO1B-86">
          <mxGeometry y="200" width="180" height="26" as="geometry" />
        </mxCell>
        <mxCell id="BQAjQg9iaMsQocKrUO1B-91" value="Variables&amp;nbsp;" style="text;html=1;strokeColor=#d79b00;fillColor=#ffe6cc;align=left;verticalAlign=top;spacingLeft=4;spacingRight=4;whiteSpace=wrap;overflow=hidden;rotatable=0;points=[[0,0.5],[1,0.5]];portConstraint=eastwest;" vertex="1" parent="BQAjQg9iaMsQocKrUO1B-86">
          <mxGeometry y="226" width="180" height="26" as="geometry" />
        </mxCell>
        <mxCell id="BQAjQg9iaMsQocKrUO1B-92" value="" style="endArrow=none;html=1;" edge="1" parent="1" source="14DQJMOeIjTHg0pRHyA--14" target="BQAjQg9iaMsQocKrUO1B-86">
          <mxGeometry width="50" height="50" relative="1" as="geometry">
            <mxPoint x="1040" y="1893.9642857142858" as="sourcePoint" />
            <mxPoint x="1140" y="1915.0357142857147" as="targetPoint" />
          </mxGeometry>
        </mxCell>
        <UserObject label="ProfileMenu" id="BQAjQg9iaMsQocKrUO1B-93">
          <mxCell style="swimlane;html=1;fontStyle=0;childLayout=stackLayout;horizontal=1;startSize=26;fillColor=#60a917;horizontalStack=0;resizeParent=1;resizeLast=0;collapsible=1;marginBottom=0;swimlaneFillColor=#ffffff;rounded=0;shadow=0;comic=0;labelBackgroundColor=none;strokeWidth=1;fontFamily=Verdana;fontSize=15;align=center;strokeColor=#2D7600;fontColor=#ffffff;" vertex="1" parent="1">
            <mxGeometry x="770" y="2922" width="180" height="304" as="geometry" />
          </mxCell>
        </UserObject>
        <mxCell id="BQAjQg9iaMsQocKrUO1B-94" value="Props:&lt;br&gt;&lt;ul&gt;&lt;li&gt;slug&lt;/li&gt;&lt;/ul&gt;" style="text;html=1;strokeColor=#82b366;align=left;verticalAlign=top;spacingLeft=4;spacingRight=4;whiteSpace=wrap;overflow=hidden;rotatable=0;points=[[0,0.5],[1,0.5]];portConstraint=eastwest;sketch=0;rounded=0;fillColor=#d5e8d4;" vertex="1" parent="BQAjQg9iaMsQocKrUO1B-93">
          <mxGeometry y="26" width="180" height="64" as="geometry" />
        </mxCell>
        <mxCell id="BQAjQg9iaMsQocKrUO1B-95" value="&lt;div&gt;Child components: none&lt;/div&gt;" style="text;html=1;strokeColor=#666666;align=left;verticalAlign=top;spacingLeft=4;spacingRight=4;whiteSpace=wrap;overflow=hidden;rotatable=0;points=[[0,0.5],[1,0.5]];portConstraint=eastwest;sketch=0;rounded=0;fillColor=#f5f5f5;fontColor=#333333;" vertex="1" parent="BQAjQg9iaMsQocKrUO1B-93">
          <mxGeometry y="90" width="180" height="30" as="geometry" />
        </mxCell>
        <mxCell id="BQAjQg9iaMsQocKrUO1B-96" value="State: Selected section, one of the following or none:&lt;br&gt;&lt;ul&gt;&lt;li&gt;Home&lt;/li&gt;&lt;li&gt;About&lt;/li&gt;&lt;li&gt;Reviews&lt;/li&gt;&lt;li&gt;Photos&lt;/li&gt;&lt;li&gt;More +&lt;/li&gt;&lt;/ul&gt;" style="text;html=1;strokeColor=#6c8ebf;fillColor=#dae8fc;align=left;verticalAlign=top;spacingLeft=4;spacingRight=4;whiteSpace=wrap;overflow=hidden;rotatable=0;points=[[0,0.5],[1,0.5]];portConstraint=eastwest;" vertex="1" parent="BQAjQg9iaMsQocKrUO1B-93">
          <mxGeometry y="120" width="180" height="130" as="geometry" />
        </mxCell>
        <mxCell id="BQAjQg9iaMsQocKrUO1B-97" value="Functions&lt;br&gt;" style="text;html=1;strokeColor=#9673a6;fillColor=#e1d5e7;align=left;verticalAlign=top;spacingLeft=4;spacingRight=4;whiteSpace=wrap;overflow=hidden;rotatable=0;points=[[0,0.5],[1,0.5]];portConstraint=eastwest;" vertex="1" parent="BQAjQg9iaMsQocKrUO1B-93">
          <mxGeometry y="250" width="180" height="26" as="geometry" />
        </mxCell>
        <mxCell id="BQAjQg9iaMsQocKrUO1B-98" value="Variables&amp;nbsp;" style="text;html=1;strokeColor=#d79b00;fillColor=#ffe6cc;align=left;verticalAlign=top;spacingLeft=4;spacingRight=4;whiteSpace=wrap;overflow=hidden;rotatable=0;points=[[0,0.5],[1,0.5]];portConstraint=eastwest;" vertex="1" parent="BQAjQg9iaMsQocKrUO1B-93">
          <mxGeometry y="276" width="180" height="28" as="geometry" />
        </mxCell>
        <mxCell id="BQAjQg9iaMsQocKrUO1B-99" value="" style="endArrow=none;html=1;" edge="1" parent="1" source="14DQJMOeIjTHg0pRHyA--14" target="BQAjQg9iaMsQocKrUO1B-93">
          <mxGeometry width="50" height="50" relative="1" as="geometry">
            <mxPoint x="1330" y="1875" as="sourcePoint" />
            <mxPoint x="1410" y="1875" as="targetPoint" />
          </mxGeometry>
        </mxCell>
        <UserObject label="OrdersMenu" id="BQAjQg9iaMsQocKrUO1B-100">
          <mxCell style="swimlane;html=1;fontStyle=0;childLayout=stackLayout;horizontal=1;startSize=26;fillColor=#60a917;horizontalStack=0;resizeParent=1;resizeLast=0;collapsible=1;marginBottom=0;swimlaneFillColor=#ffffff;rounded=0;shadow=0;comic=0;labelBackgroundColor=none;strokeWidth=1;fontFamily=Verdana;fontSize=15;align=center;strokeColor=#2D7600;fontColor=#ffffff;" vertex="1" parent="1">
            <mxGeometry x="1270" y="3010" width="180" height="212" as="geometry" />
          </mxCell>
        </UserObject>
        <mxCell id="BQAjQg9iaMsQocKrUO1B-101" value="Props:&lt;br&gt;&lt;ul&gt;&lt;li&gt;slug&lt;/li&gt;&lt;/ul&gt;" style="text;html=1;strokeColor=#82b366;align=left;verticalAlign=top;spacingLeft=4;spacingRight=4;whiteSpace=wrap;overflow=hidden;rotatable=0;points=[[0,0.5],[1,0.5]];portConstraint=eastwest;sketch=0;rounded=0;fillColor=#d5e8d4;" vertex="1" parent="BQAjQg9iaMsQocKrUO1B-100">
          <mxGeometry y="26" width="180" height="64" as="geometry" />
        </mxCell>
        <mxCell id="BQAjQg9iaMsQocKrUO1B-102" value="&lt;div&gt;Child components: none&lt;/div&gt;" style="text;html=1;strokeColor=#666666;align=left;verticalAlign=top;spacingLeft=4;spacingRight=4;whiteSpace=wrap;overflow=hidden;rotatable=0;points=[[0,0.5],[1,0.5]];portConstraint=eastwest;sketch=0;rounded=0;fillColor=#f5f5f5;fontColor=#333333;" vertex="1" parent="BQAjQg9iaMsQocKrUO1B-100">
          <mxGeometry y="90" width="180" height="30" as="geometry" />
        </mxCell>
        <mxCell id="BQAjQg9iaMsQocKrUO1B-103" value="State: Selected section, either customers or none" style="text;html=1;strokeColor=#6c8ebf;fillColor=#dae8fc;align=left;verticalAlign=top;spacingLeft=4;spacingRight=4;whiteSpace=wrap;overflow=hidden;rotatable=0;points=[[0,0.5],[1,0.5]];portConstraint=eastwest;" vertex="1" parent="BQAjQg9iaMsQocKrUO1B-100">
          <mxGeometry y="120" width="180" height="40" as="geometry" />
        </mxCell>
        <mxCell id="BQAjQg9iaMsQocKrUO1B-104" value="Functions&lt;br&gt;" style="text;html=1;strokeColor=#9673a6;fillColor=#e1d5e7;align=left;verticalAlign=top;spacingLeft=4;spacingRight=4;whiteSpace=wrap;overflow=hidden;rotatable=0;points=[[0,0.5],[1,0.5]];portConstraint=eastwest;" vertex="1" parent="BQAjQg9iaMsQocKrUO1B-100">
          <mxGeometry y="160" width="180" height="26" as="geometry" />
        </mxCell>
        <mxCell id="BQAjQg9iaMsQocKrUO1B-105" value="Variables&amp;nbsp;" style="text;html=1;strokeColor=#d79b00;fillColor=#ffe6cc;align=left;verticalAlign=top;spacingLeft=4;spacingRight=4;whiteSpace=wrap;overflow=hidden;rotatable=0;points=[[0,0.5],[1,0.5]];portConstraint=eastwest;" vertex="1" parent="BQAjQg9iaMsQocKrUO1B-100">
          <mxGeometry y="186" width="180" height="26" as="geometry" />
        </mxCell>
        <mxCell id="BQAjQg9iaMsQocKrUO1B-106" value="" style="endArrow=none;html=1;" edge="1" parent="1" source="14DQJMOeIjTHg0pRHyA--14" target="BQAjQg9iaMsQocKrUO1B-100">
          <mxGeometry width="50" height="50" relative="1" as="geometry">
            <mxPoint x="1330" y="1970.1923076923076" as="sourcePoint" />
            <mxPoint x="1410" y="2054.8076923076924" as="targetPoint" />
          </mxGeometry>
        </mxCell>
        <mxCell id="BQAjQg9iaMsQocKrUO1B-127" value="Shopper Setup" style="swimlane;html=1;fontStyle=0;childLayout=stackLayout;horizontal=1;startSize=26;fillColor=#60a917;horizontalStack=0;resizeParent=1;resizeLast=0;collapsible=1;marginBottom=0;swimlaneFillColor=#ffffff;rounded=0;shadow=0;comic=0;labelBackgroundColor=none;strokeWidth=1;fontFamily=Verdana;fontSize=15;align=center;strokeColor=#2D7600;fontColor=#ffffff;" vertex="1" parent="1">
          <mxGeometry x="560" y="1680" width="160" height="240" as="geometry" />
        </mxCell>
        <mxCell id="BQAjQg9iaMsQocKrUO1B-128" value="Props:: None&lt;br&gt;" style="text;html=1;strokeColor=#82b366;align=left;verticalAlign=top;spacingLeft=4;spacingRight=4;whiteSpace=wrap;overflow=hidden;rotatable=0;points=[[0,0.5],[1,0.5]];portConstraint=eastwest;sketch=0;rounded=0;fillColor=#d5e8d4;" vertex="1" parent="BQAjQg9iaMsQocKrUO1B-127">
          <mxGeometry y="26" width="160" height="24" as="geometry" />
        </mxCell>
        <mxCell id="BQAjQg9iaMsQocKrUO1B-129" value="Child components:&lt;br&gt;&lt;ul&gt;&lt;li&gt;ShopperSetupMain&lt;/li&gt;&lt;/ul&gt;" style="text;html=1;strokeColor=#666666;align=left;verticalAlign=top;spacingLeft=4;spacingRight=4;whiteSpace=wrap;overflow=hidden;rotatable=0;points=[[0,0.5],[1,0.5]];portConstraint=eastwest;sketch=0;rounded=0;fillColor=#f5f5f5;fontColor=#333333;" vertex="1" parent="BQAjQg9iaMsQocKrUO1B-127">
          <mxGeometry y="50" width="160" height="100" as="geometry" />
        </mxCell>
        <mxCell id="BQAjQg9iaMsQocKrUO1B-130" value="State: None" style="text;html=1;strokeColor=#6c8ebf;fillColor=#dae8fc;align=left;verticalAlign=top;spacingLeft=4;spacingRight=4;whiteSpace=wrap;overflow=hidden;rotatable=0;points=[[0,0.5],[1,0.5]];portConstraint=eastwest;" vertex="1" parent="BQAjQg9iaMsQocKrUO1B-127">
          <mxGeometry y="150" width="160" height="30" as="geometry" />
        </mxCell>
        <mxCell id="BQAjQg9iaMsQocKrUO1B-131" value="Functions: None" style="text;html=1;strokeColor=#9673a6;fillColor=#e1d5e7;align=left;verticalAlign=top;spacingLeft=4;spacingRight=4;whiteSpace=wrap;overflow=hidden;rotatable=0;points=[[0,0.5],[1,0.5]];portConstraint=eastwest;" vertex="1" parent="BQAjQg9iaMsQocKrUO1B-127">
          <mxGeometry y="180" width="160" height="30" as="geometry" />
        </mxCell>
        <mxCell id="BQAjQg9iaMsQocKrUO1B-132" value="Variables: None&lt;br&gt;" style="text;html=1;strokeColor=#d79b00;fillColor=#ffe6cc;align=left;verticalAlign=top;spacingLeft=4;spacingRight=4;whiteSpace=wrap;overflow=hidden;rotatable=0;points=[[0,0.5],[1,0.5]];portConstraint=eastwest;" vertex="1" parent="BQAjQg9iaMsQocKrUO1B-127">
          <mxGeometry y="210" width="160" height="30" as="geometry" />
        </mxCell>
        <mxCell id="BQAjQg9iaMsQocKrUO1B-133" value="" style="endArrow=classic;html=1;" edge="1" parent="1" source="BQAjQg9iaMsQocKrUO1B-127" target="QjU3JXXY-2pWFs3UZOMo-53">
          <mxGeometry width="50" height="50" relative="1" as="geometry">
            <mxPoint x="1010" y="1409.090909090909" as="sourcePoint" />
            <mxPoint x="730" y="1720.909090909091" as="targetPoint" />
          </mxGeometry>
        </mxCell>
        <mxCell id="BQAjQg9iaMsQocKrUO1B-134" value="RedirectsTo" style="edgeLabel;html=1;align=center;verticalAlign=middle;resizable=0;points=[];" vertex="1" connectable="0" parent="BQAjQg9iaMsQocKrUO1B-133">
          <mxGeometry x="0.2783" relative="1" as="geometry">
            <mxPoint y="1" as="offset" />
          </mxGeometry>
        </mxCell>
        <mxCell id="BQAjQg9iaMsQocKrUO1B-135" value="" style="endArrow=classic;html=1;" edge="1" parent="1" target="BQAjQg9iaMsQocKrUO1B-137" source="BQAjQg9iaMsQocKrUO1B-73">
          <mxGeometry width="50" height="50" relative="1" as="geometry">
            <mxPoint x="1200" y="1395.160909090909" as="sourcePoint" />
            <mxPoint x="1090" y="1220.5144444444443" as="targetPoint" />
          </mxGeometry>
        </mxCell>
        <mxCell id="BQAjQg9iaMsQocKrUO1B-136" value="RedirectsTo" style="edgeLabel;html=1;align=center;verticalAlign=middle;resizable=0;points=[];" vertex="1" connectable="0" parent="BQAjQg9iaMsQocKrUO1B-135">
          <mxGeometry x="0.2783" relative="1" as="geometry">
            <mxPoint y="1" as="offset" />
          </mxGeometry>
        </mxCell>
        <mxCell id="BQAjQg9iaMsQocKrUO1B-137" value="Creator Setup" style="swimlane;html=1;fontStyle=0;childLayout=stackLayout;horizontal=1;startSize=26;fillColor=#60a917;horizontalStack=0;resizeParent=1;resizeLast=0;collapsible=1;marginBottom=0;swimlaneFillColor=#ffffff;rounded=0;shadow=0;comic=0;labelBackgroundColor=none;strokeWidth=1;fontFamily=Verdana;fontSize=15;align=center;strokeColor=#2D7600;fontColor=#ffffff;" vertex="1" parent="1">
          <mxGeometry x="790" y="1681" width="160" height="240" as="geometry" />
        </mxCell>
        <mxCell id="BQAjQg9iaMsQocKrUO1B-138" value="Props:: None&lt;br&gt;" style="text;html=1;strokeColor=#82b366;align=left;verticalAlign=top;spacingLeft=4;spacingRight=4;whiteSpace=wrap;overflow=hidden;rotatable=0;points=[[0,0.5],[1,0.5]];portConstraint=eastwest;sketch=0;rounded=0;fillColor=#d5e8d4;" vertex="1" parent="BQAjQg9iaMsQocKrUO1B-137">
          <mxGeometry y="26" width="160" height="24" as="geometry" />
        </mxCell>
        <mxCell id="BQAjQg9iaMsQocKrUO1B-139" value="Child components:&lt;br&gt;&lt;ul&gt;&lt;li&gt;CreatorSetupMain&lt;/li&gt;&lt;/ul&gt;" style="text;html=1;strokeColor=#666666;align=left;verticalAlign=top;spacingLeft=4;spacingRight=4;whiteSpace=wrap;overflow=hidden;rotatable=0;points=[[0,0.5],[1,0.5]];portConstraint=eastwest;sketch=0;rounded=0;fillColor=#f5f5f5;fontColor=#333333;" vertex="1" parent="BQAjQg9iaMsQocKrUO1B-137">
          <mxGeometry y="50" width="160" height="100" as="geometry" />
        </mxCell>
        <mxCell id="BQAjQg9iaMsQocKrUO1B-140" value="State: None" style="text;html=1;strokeColor=#6c8ebf;fillColor=#dae8fc;align=left;verticalAlign=top;spacingLeft=4;spacingRight=4;whiteSpace=wrap;overflow=hidden;rotatable=0;points=[[0,0.5],[1,0.5]];portConstraint=eastwest;" vertex="1" parent="BQAjQg9iaMsQocKrUO1B-137">
          <mxGeometry y="150" width="160" height="30" as="geometry" />
        </mxCell>
        <mxCell id="BQAjQg9iaMsQocKrUO1B-141" value="Functions: None" style="text;html=1;strokeColor=#9673a6;fillColor=#e1d5e7;align=left;verticalAlign=top;spacingLeft=4;spacingRight=4;whiteSpace=wrap;overflow=hidden;rotatable=0;points=[[0,0.5],[1,0.5]];portConstraint=eastwest;" vertex="1" parent="BQAjQg9iaMsQocKrUO1B-137">
          <mxGeometry y="180" width="160" height="30" as="geometry" />
        </mxCell>
        <mxCell id="BQAjQg9iaMsQocKrUO1B-142" value="Variables: None&lt;br&gt;" style="text;html=1;strokeColor=#d79b00;fillColor=#ffe6cc;align=left;verticalAlign=top;spacingLeft=4;spacingRight=4;whiteSpace=wrap;overflow=hidden;rotatable=0;points=[[0,0.5],[1,0.5]];portConstraint=eastwest;" vertex="1" parent="BQAjQg9iaMsQocKrUO1B-137">
          <mxGeometry y="210" width="160" height="30" as="geometry" />
        </mxCell>
        <mxCell id="BQAjQg9iaMsQocKrUO1B-143" value="" style="endArrow=classic;html=1;" edge="1" parent="1" source="BQAjQg9iaMsQocKrUO1B-137" target="QjU3JXXY-2pWFs3UZOMo-112">
          <mxGeometry width="50" height="50" relative="1" as="geometry">
            <mxPoint x="1210" y="1405.160909090909" as="sourcePoint" />
            <mxPoint x="620" y="2140.003333333334" as="targetPoint" />
          </mxGeometry>
        </mxCell>
        <mxCell id="BQAjQg9iaMsQocKrUO1B-144" value="RedirectsTo" style="edgeLabel;html=1;align=center;verticalAlign=middle;resizable=0;points=[];" vertex="1" connectable="0" parent="BQAjQg9iaMsQocKrUO1B-143">
          <mxGeometry x="0.2783" relative="1" as="geometry">
            <mxPoint y="1" as="offset" />
          </mxGeometry>
        </mxCell>
        <mxCell id="BQAjQg9iaMsQocKrUO1B-151" value="" style="endArrow=classic;html=1;" edge="1" parent="1" target="BQAjQg9iaMsQocKrUO1B-153" source="BQAjQg9iaMsQocKrUO1B-73">
          <mxGeometry width="50" height="50" relative="1" as="geometry">
            <mxPoint x="1284.2561710794298" y="1421" as="sourcePoint" />
            <mxPoint x="1345.58" y="1211.5144444444443" as="targetPoint" />
          </mxGeometry>
        </mxCell>
        <mxCell id="BQAjQg9iaMsQocKrUO1B-152" value="RedirectsTo" style="edgeLabel;html=1;align=center;verticalAlign=middle;resizable=0;points=[];" vertex="1" connectable="0" parent="BQAjQg9iaMsQocKrUO1B-151">
          <mxGeometry x="0.2783" relative="1" as="geometry">
            <mxPoint y="1" as="offset" />
          </mxGeometry>
        </mxCell>
        <mxCell id="BQAjQg9iaMsQocKrUO1B-153" value="Vendor Setup" style="swimlane;html=1;fontStyle=0;childLayout=stackLayout;horizontal=1;startSize=26;fillColor=#60a917;horizontalStack=0;resizeParent=1;resizeLast=0;collapsible=1;marginBottom=0;swimlaneFillColor=#ffffff;rounded=0;shadow=0;comic=0;labelBackgroundColor=none;strokeWidth=1;fontFamily=Verdana;fontSize=15;align=center;strokeColor=#2D7600;fontColor=#ffffff;" vertex="1" parent="1">
          <mxGeometry x="999.9999999999999" y="1680" width="160" height="240" as="geometry" />
        </mxCell>
        <mxCell id="BQAjQg9iaMsQocKrUO1B-154" value="Props:: None&lt;br&gt;" style="text;html=1;strokeColor=#82b366;align=left;verticalAlign=top;spacingLeft=4;spacingRight=4;whiteSpace=wrap;overflow=hidden;rotatable=0;points=[[0,0.5],[1,0.5]];portConstraint=eastwest;sketch=0;rounded=0;fillColor=#d5e8d4;" vertex="1" parent="BQAjQg9iaMsQocKrUO1B-153">
          <mxGeometry y="26" width="160" height="24" as="geometry" />
        </mxCell>
        <mxCell id="BQAjQg9iaMsQocKrUO1B-155" value="Child components:&lt;br&gt;&lt;ul&gt;&lt;li&gt;VendorSetupMain&lt;/li&gt;&lt;/ul&gt;" style="text;html=1;strokeColor=#666666;align=left;verticalAlign=top;spacingLeft=4;spacingRight=4;whiteSpace=wrap;overflow=hidden;rotatable=0;points=[[0,0.5],[1,0.5]];portConstraint=eastwest;sketch=0;rounded=0;fillColor=#f5f5f5;fontColor=#333333;" vertex="1" parent="BQAjQg9iaMsQocKrUO1B-153">
          <mxGeometry y="50" width="160" height="100" as="geometry" />
        </mxCell>
        <mxCell id="BQAjQg9iaMsQocKrUO1B-156" value="State: None" style="text;html=1;strokeColor=#6c8ebf;fillColor=#dae8fc;align=left;verticalAlign=top;spacingLeft=4;spacingRight=4;whiteSpace=wrap;overflow=hidden;rotatable=0;points=[[0,0.5],[1,0.5]];portConstraint=eastwest;" vertex="1" parent="BQAjQg9iaMsQocKrUO1B-153">
          <mxGeometry y="150" width="160" height="30" as="geometry" />
        </mxCell>
        <mxCell id="BQAjQg9iaMsQocKrUO1B-157" value="Functions: None" style="text;html=1;strokeColor=#9673a6;fillColor=#e1d5e7;align=left;verticalAlign=top;spacingLeft=4;spacingRight=4;whiteSpace=wrap;overflow=hidden;rotatable=0;points=[[0,0.5],[1,0.5]];portConstraint=eastwest;" vertex="1" parent="BQAjQg9iaMsQocKrUO1B-153">
          <mxGeometry y="180" width="160" height="30" as="geometry" />
        </mxCell>
        <mxCell id="BQAjQg9iaMsQocKrUO1B-158" value="Variables: None&lt;br&gt;" style="text;html=1;strokeColor=#d79b00;fillColor=#ffe6cc;align=left;verticalAlign=top;spacingLeft=4;spacingRight=4;whiteSpace=wrap;overflow=hidden;rotatable=0;points=[[0,0.5],[1,0.5]];portConstraint=eastwest;" vertex="1" parent="BQAjQg9iaMsQocKrUO1B-153">
          <mxGeometry y="210" width="160" height="30" as="geometry" />
        </mxCell>
        <mxCell id="BQAjQg9iaMsQocKrUO1B-159" value="" style="endArrow=classic;html=1;" edge="1" parent="1" source="BQAjQg9iaMsQocKrUO1B-153" target="QjU3JXXY-2pWFs3UZOMo-106">
          <mxGeometry width="50" height="50" relative="1" as="geometry">
            <mxPoint x="1465.58" y="1396.160909090909" as="sourcePoint" />
            <mxPoint x="930.0030769230772" y="2130.9999999999995" as="targetPoint" />
          </mxGeometry>
        </mxCell>
        <mxCell id="BQAjQg9iaMsQocKrUO1B-160" value="RedirectsTo" style="edgeLabel;html=1;align=center;verticalAlign=middle;resizable=0;points=[];" vertex="1" connectable="0" parent="BQAjQg9iaMsQocKrUO1B-159">
          <mxGeometry x="0.2783" relative="1" as="geometry">
            <mxPoint y="1" as="offset" />
          </mxGeometry>
        </mxCell>
        <UserObject label="CreatorMenu" id="BQAjQg9iaMsQocKrUO1B-162">
          <mxCell style="swimlane;html=1;fontStyle=0;childLayout=stackLayout;horizontal=1;startSize=26;fillColor=#60a917;horizontalStack=0;resizeParent=1;resizeLast=0;collapsible=1;marginBottom=0;swimlaneFillColor=#ffffff;rounded=0;shadow=0;comic=0;labelBackgroundColor=none;strokeWidth=1;fontFamily=Verdana;fontSize=15;align=center;strokeColor=#2D7600;fontColor=#ffffff;" vertex="1" parent="1">
            <mxGeometry x="600" y="2480" width="180" height="324" as="geometry" />
          </mxCell>
        </UserObject>
        <mxCell id="BQAjQg9iaMsQocKrUO1B-163" value="Props:&lt;br&gt;&lt;ul&gt;&lt;li&gt;slug&lt;/li&gt;&lt;/ul&gt;" style="text;html=1;strokeColor=#82b366;align=left;verticalAlign=top;spacingLeft=4;spacingRight=4;whiteSpace=wrap;overflow=hidden;rotatable=0;points=[[0,0.5],[1,0.5]];portConstraint=eastwest;sketch=0;rounded=0;fillColor=#d5e8d4;" vertex="1" parent="BQAjQg9iaMsQocKrUO1B-162">
          <mxGeometry y="26" width="180" height="64" as="geometry" />
        </mxCell>
        <mxCell id="BQAjQg9iaMsQocKrUO1B-164" value="&lt;div&gt;Child components:&lt;/div&gt;&lt;ul&gt;&lt;li&gt;profileMenu&lt;/li&gt;&lt;li&gt;buisinessToolsMenu&lt;/li&gt;&lt;/ul&gt;" style="text;html=1;strokeColor=#666666;align=left;verticalAlign=top;spacingLeft=4;spacingRight=4;whiteSpace=wrap;overflow=hidden;rotatable=0;points=[[0,0.5],[1,0.5]];portConstraint=eastwest;sketch=0;rounded=0;fillColor=#f5f5f5;fontColor=#333333;" vertex="1" parent="BQAjQg9iaMsQocKrUO1B-162">
          <mxGeometry y="90" width="180" height="70" as="geometry" />
        </mxCell>
        <mxCell id="BQAjQg9iaMsQocKrUO1B-165" value="State: Selected section, one of the following:&lt;br&gt;&lt;ul&gt;&lt;li&gt;Profile and subsections&lt;/li&gt;&lt;li&gt;Billing&lt;/li&gt;&lt;li&gt;Business tools and subsections&lt;/li&gt;&lt;/ul&gt;" style="text;html=1;strokeColor=#6c8ebf;fillColor=#dae8fc;align=left;verticalAlign=top;spacingLeft=4;spacingRight=4;whiteSpace=wrap;overflow=hidden;rotatable=0;points=[[0,0.5],[1,0.5]];portConstraint=eastwest;" vertex="1" parent="BQAjQg9iaMsQocKrUO1B-162">
          <mxGeometry y="160" width="180" height="110" as="geometry" />
        </mxCell>
        <mxCell id="BQAjQg9iaMsQocKrUO1B-166" value="Functions&lt;br&gt;" style="text;html=1;strokeColor=#9673a6;fillColor=#e1d5e7;align=left;verticalAlign=top;spacingLeft=4;spacingRight=4;whiteSpace=wrap;overflow=hidden;rotatable=0;points=[[0,0.5],[1,0.5]];portConstraint=eastwest;" vertex="1" parent="BQAjQg9iaMsQocKrUO1B-162">
          <mxGeometry y="270" width="180" height="26" as="geometry" />
        </mxCell>
        <mxCell id="BQAjQg9iaMsQocKrUO1B-167" value="Variables&amp;nbsp;" style="text;html=1;strokeColor=#d79b00;fillColor=#ffe6cc;align=left;verticalAlign=top;spacingLeft=4;spacingRight=4;whiteSpace=wrap;overflow=hidden;rotatable=0;points=[[0,0.5],[1,0.5]];portConstraint=eastwest;" vertex="1" parent="BQAjQg9iaMsQocKrUO1B-162">
          <mxGeometry y="296" width="180" height="28" as="geometry" />
        </mxCell>
        <mxCell id="BQAjQg9iaMsQocKrUO1B-168" value="" style="endArrow=none;html=1;" edge="1" parent="1" source="QjU3JXXY-2pWFs3UZOMo-112" target="BQAjQg9iaMsQocKrUO1B-162">
          <mxGeometry width="50" height="50" relative="1" as="geometry">
            <mxPoint x="1040" y="2463.9090909090905" as="sourcePoint" />
            <mxPoint x="1080" y="2530.090909090909" as="targetPoint" />
          </mxGeometry>
        </mxCell>
        <mxCell id="BQAjQg9iaMsQocKrUO1B-169" value="" style="endArrow=none;html=1;" edge="1" parent="1" source="BQAjQg9iaMsQocKrUO1B-162" target="BQAjQg9iaMsQocKrUO1B-93">
          <mxGeometry width="50" height="50" relative="1" as="geometry">
            <mxPoint x="1080" y="2746.2352941176473" as="sourcePoint" />
            <mxPoint x="750" y="2992.764705882353" as="targetPoint" />
          </mxGeometry>
        </mxCell>
        <UserObject label="ShopperMenu" id="BQAjQg9iaMsQocKrUO1B-170">
          <mxCell style="swimlane;html=1;fontStyle=0;childLayout=stackLayout;horizontal=1;startSize=26;fillColor=#60a917;horizontalStack=0;resizeParent=1;resizeLast=0;collapsible=1;marginBottom=0;swimlaneFillColor=#ffffff;rounded=0;shadow=0;comic=0;labelBackgroundColor=none;strokeWidth=1;fontFamily=Verdana;fontSize=15;align=center;strokeColor=#2D7600;fontColor=#ffffff;" vertex="1" parent="1">
            <mxGeometry x="290" y="2520" width="180" height="324" as="geometry" />
          </mxCell>
        </UserObject>
        <mxCell id="BQAjQg9iaMsQocKrUO1B-171" value="Props:&lt;br&gt;&lt;ul&gt;&lt;li&gt;slug&lt;/li&gt;&lt;/ul&gt;" style="text;html=1;strokeColor=#82b366;align=left;verticalAlign=top;spacingLeft=4;spacingRight=4;whiteSpace=wrap;overflow=hidden;rotatable=0;points=[[0,0.5],[1,0.5]];portConstraint=eastwest;sketch=0;rounded=0;fillColor=#d5e8d4;" vertex="1" parent="BQAjQg9iaMsQocKrUO1B-170">
          <mxGeometry y="26" width="180" height="64" as="geometry" />
        </mxCell>
        <mxCell id="BQAjQg9iaMsQocKrUO1B-172" value="&lt;div&gt;Child components:&lt;/div&gt;&lt;ul&gt;&lt;li&gt;Activity&lt;/li&gt;&lt;li&gt;Suggested&lt;/li&gt;&lt;/ul&gt;" style="text;html=1;strokeColor=#666666;align=left;verticalAlign=top;spacingLeft=4;spacingRight=4;whiteSpace=wrap;overflow=hidden;rotatable=0;points=[[0,0.5],[1,0.5]];portConstraint=eastwest;sketch=0;rounded=0;fillColor=#f5f5f5;fontColor=#333333;" vertex="1" parent="BQAjQg9iaMsQocKrUO1B-170">
          <mxGeometry y="90" width="180" height="70" as="geometry" />
        </mxCell>
        <mxCell id="BQAjQg9iaMsQocKrUO1B-173" value="State: Selected section, one of the following:&lt;br&gt;&lt;ul&gt;&lt;li&gt;My Feed&lt;/li&gt;&lt;li&gt;Following&lt;/li&gt;&lt;li&gt;Explore&lt;/li&gt;&lt;li&gt;My Closet&lt;/li&gt;&lt;/ul&gt;" style="text;html=1;strokeColor=#6c8ebf;fillColor=#dae8fc;align=left;verticalAlign=top;spacingLeft=4;spacingRight=4;whiteSpace=wrap;overflow=hidden;rotatable=0;points=[[0,0.5],[1,0.5]];portConstraint=eastwest;" vertex="1" parent="BQAjQg9iaMsQocKrUO1B-170">
          <mxGeometry y="160" width="180" height="110" as="geometry" />
        </mxCell>
        <mxCell id="BQAjQg9iaMsQocKrUO1B-174" value="Functions&lt;br&gt;" style="text;html=1;strokeColor=#9673a6;fillColor=#e1d5e7;align=left;verticalAlign=top;spacingLeft=4;spacingRight=4;whiteSpace=wrap;overflow=hidden;rotatable=0;points=[[0,0.5],[1,0.5]];portConstraint=eastwest;" vertex="1" parent="BQAjQg9iaMsQocKrUO1B-170">
          <mxGeometry y="270" width="180" height="26" as="geometry" />
        </mxCell>
        <mxCell id="BQAjQg9iaMsQocKrUO1B-175" value="Variables&amp;nbsp;" style="text;html=1;strokeColor=#d79b00;fillColor=#ffe6cc;align=left;verticalAlign=top;spacingLeft=4;spacingRight=4;whiteSpace=wrap;overflow=hidden;rotatable=0;points=[[0,0.5],[1,0.5]];portConstraint=eastwest;" vertex="1" parent="BQAjQg9iaMsQocKrUO1B-170">
          <mxGeometry y="296" width="180" height="28" as="geometry" />
        </mxCell>
        <UserObject label="Business Tools Menu" id="BQAjQg9iaMsQocKrUO1B-176">
          <mxCell style="swimlane;html=1;fontStyle=0;childLayout=stackLayout;horizontal=1;startSize=26;fillColor=#60a917;horizontalStack=0;resizeParent=1;resizeLast=0;collapsible=1;marginBottom=0;swimlaneFillColor=#ffffff;rounded=0;shadow=0;comic=0;labelBackgroundColor=none;strokeWidth=1;fontFamily=Verdana;fontSize=15;align=center;strokeColor=#2D7600;fontColor=#ffffff;" vertex="1" parent="1">
            <mxGeometry x="410" y="2894" width="180" height="274" as="geometry" />
          </mxCell>
        </UserObject>
        <mxCell id="BQAjQg9iaMsQocKrUO1B-177" value="Props:&lt;br&gt;&lt;ul&gt;&lt;li&gt;slug&lt;/li&gt;&lt;/ul&gt;" style="text;html=1;strokeColor=#82b366;align=left;verticalAlign=top;spacingLeft=4;spacingRight=4;whiteSpace=wrap;overflow=hidden;rotatable=0;points=[[0,0.5],[1,0.5]];portConstraint=eastwest;sketch=0;rounded=0;fillColor=#d5e8d4;" vertex="1" parent="BQAjQg9iaMsQocKrUO1B-176">
          <mxGeometry y="26" width="180" height="64" as="geometry" />
        </mxCell>
        <mxCell id="BQAjQg9iaMsQocKrUO1B-178" value="&lt;div&gt;Child components: none&lt;/div&gt;" style="text;html=1;strokeColor=#666666;align=left;verticalAlign=top;spacingLeft=4;spacingRight=4;whiteSpace=wrap;overflow=hidden;rotatable=0;points=[[0,0.5],[1,0.5]];portConstraint=eastwest;sketch=0;rounded=0;fillColor=#f5f5f5;fontColor=#333333;" vertex="1" parent="BQAjQg9iaMsQocKrUO1B-176">
          <mxGeometry y="90" width="180" height="30" as="geometry" />
        </mxCell>
        <mxCell id="BQAjQg9iaMsQocKrUO1B-179" value="State: Selected section, one of the following or none:&amp;nbsp;&lt;br&gt;&lt;ul&gt;&lt;li&gt;Videos&lt;/li&gt;&lt;li&gt;Wardrobes&lt;/li&gt;&lt;li&gt;Products&lt;/li&gt;&lt;/ul&gt;" style="text;html=1;strokeColor=#6c8ebf;fillColor=#dae8fc;align=left;verticalAlign=top;spacingLeft=4;spacingRight=4;whiteSpace=wrap;overflow=hidden;rotatable=0;points=[[0,0.5],[1,0.5]];portConstraint=eastwest;" vertex="1" parent="BQAjQg9iaMsQocKrUO1B-176">
          <mxGeometry y="120" width="180" height="100" as="geometry" />
        </mxCell>
        <mxCell id="BQAjQg9iaMsQocKrUO1B-180" value="Functions&lt;br&gt;" style="text;html=1;strokeColor=#9673a6;fillColor=#e1d5e7;align=left;verticalAlign=top;spacingLeft=4;spacingRight=4;whiteSpace=wrap;overflow=hidden;rotatable=0;points=[[0,0.5],[1,0.5]];portConstraint=eastwest;" vertex="1" parent="BQAjQg9iaMsQocKrUO1B-176">
          <mxGeometry y="220" width="180" height="26" as="geometry" />
        </mxCell>
        <mxCell id="BQAjQg9iaMsQocKrUO1B-181" value="Variables&amp;nbsp;" style="text;html=1;strokeColor=#d79b00;fillColor=#ffe6cc;align=left;verticalAlign=top;spacingLeft=4;spacingRight=4;whiteSpace=wrap;overflow=hidden;rotatable=0;points=[[0,0.5],[1,0.5]];portConstraint=eastwest;" vertex="1" parent="BQAjQg9iaMsQocKrUO1B-176">
          <mxGeometry y="246" width="180" height="28" as="geometry" />
        </mxCell>
        <mxCell id="BQAjQg9iaMsQocKrUO1B-182" value="" style="endArrow=none;html=1;" edge="1" parent="1" source="QjU3JXXY-2pWFs3UZOMo-53" target="BQAjQg9iaMsQocKrUO1B-170">
          <mxGeometry width="50" height="50" relative="1" as="geometry">
            <mxPoint x="644.5535714285716" y="2408" as="sourcePoint" />
            <mxPoint x="666.5178571428569" y="2490" as="targetPoint" />
          </mxGeometry>
        </mxCell>
        <mxCell id="BQAjQg9iaMsQocKrUO1B-183" value="" style="endArrow=none;html=1;" edge="1" parent="1" source="BQAjQg9iaMsQocKrUO1B-162" target="BQAjQg9iaMsQocKrUO1B-176">
          <mxGeometry width="50" height="50" relative="1" as="geometry">
            <mxPoint x="713.6612021857923" y="2740" as="sourcePoint" />
            <mxPoint x="724.6994535519125" y="2841" as="targetPoint" />
          </mxGeometry>
        </mxCell>
        <mxCell id="BQAjQg9iaMsQocKrUO1B-184" value="" style="endArrow=classic;html=1;" edge="1" parent="1" source="_02DjtNMK4Eb3W8Fh0LB-1" target="BQAjQg9iaMsQocKrUO1B-162">
          <mxGeometry width="50" height="50" relative="1" as="geometry">
            <mxPoint x="590" y="1096.1111111111113" as="sourcePoint" />
            <mxPoint x="1224.782608695652" y="2500" as="targetPoint" />
            <Array as="points">
              <mxPoint x="1350" y="1150" />
              <mxPoint x="1190" y="2320" />
            </Array>
          </mxGeometry>
        </mxCell>
        <UserObject label="Shopper Header" id="BQAjQg9iaMsQocKrUO1B-185">
          <mxCell style="swimlane;html=1;fontStyle=0;childLayout=stackLayout;horizontal=1;startSize=26;fillColor=#60a917;horizontalStack=0;resizeParent=1;resizeLast=0;collapsible=1;marginBottom=0;swimlaneFillColor=#ffffff;rounded=0;shadow=0;comic=0;labelBackgroundColor=none;strokeWidth=1;fontFamily=Verdana;fontSize=15;align=center;strokeColor=#2D7600;fontColor=#ffffff;" vertex="1" parent="1">
            <mxGeometry x="70" y="2570" width="180" height="244" as="geometry" />
          </mxCell>
        </UserObject>
        <mxCell id="BQAjQg9iaMsQocKrUO1B-186" value="Props:&lt;br&gt;&lt;ul&gt;&lt;li&gt;slug&lt;/li&gt;&lt;/ul&gt;" style="text;html=1;strokeColor=#82b366;align=left;verticalAlign=top;spacingLeft=4;spacingRight=4;whiteSpace=wrap;overflow=hidden;rotatable=0;points=[[0,0.5],[1,0.5]];portConstraint=eastwest;sketch=0;rounded=0;fillColor=#d5e8d4;" vertex="1" parent="BQAjQg9iaMsQocKrUO1B-185">
          <mxGeometry y="26" width="180" height="64" as="geometry" />
        </mxCell>
        <mxCell id="BQAjQg9iaMsQocKrUO1B-187" value="&lt;div&gt;Child components:&lt;/div&gt;&lt;ul&gt;&lt;li&gt;Cart&lt;/li&gt;&lt;li&gt;Search Bar&lt;/li&gt;&lt;/ul&gt;" style="text;html=1;strokeColor=#666666;align=left;verticalAlign=top;spacingLeft=4;spacingRight=4;whiteSpace=wrap;overflow=hidden;rotatable=0;points=[[0,0.5],[1,0.5]];portConstraint=eastwest;sketch=0;rounded=0;fillColor=#f5f5f5;fontColor=#333333;" vertex="1" parent="BQAjQg9iaMsQocKrUO1B-185">
          <mxGeometry y="90" width="180" height="70" as="geometry" />
        </mxCell>
        <mxCell id="BQAjQg9iaMsQocKrUO1B-188" value="State" style="text;html=1;strokeColor=#6c8ebf;fillColor=#dae8fc;align=left;verticalAlign=top;spacingLeft=4;spacingRight=4;whiteSpace=wrap;overflow=hidden;rotatable=0;points=[[0,0.5],[1,0.5]];portConstraint=eastwest;" vertex="1" parent="BQAjQg9iaMsQocKrUO1B-185">
          <mxGeometry y="160" width="180" height="30" as="geometry" />
        </mxCell>
        <mxCell id="BQAjQg9iaMsQocKrUO1B-189" value="Functions&lt;br&gt;" style="text;html=1;strokeColor=#9673a6;fillColor=#e1d5e7;align=left;verticalAlign=top;spacingLeft=4;spacingRight=4;whiteSpace=wrap;overflow=hidden;rotatable=0;points=[[0,0.5],[1,0.5]];portConstraint=eastwest;" vertex="1" parent="BQAjQg9iaMsQocKrUO1B-185">
          <mxGeometry y="190" width="180" height="26" as="geometry" />
        </mxCell>
        <mxCell id="BQAjQg9iaMsQocKrUO1B-190" value="Variables&amp;nbsp;" style="text;html=1;strokeColor=#d79b00;fillColor=#ffe6cc;align=left;verticalAlign=top;spacingLeft=4;spacingRight=4;whiteSpace=wrap;overflow=hidden;rotatable=0;points=[[0,0.5],[1,0.5]];portConstraint=eastwest;" vertex="1" parent="BQAjQg9iaMsQocKrUO1B-185">
          <mxGeometry y="216" width="180" height="28" as="geometry" />
        </mxCell>
        <mxCell id="BQAjQg9iaMsQocKrUO1B-191" value="" style="endArrow=none;html=1;" edge="1" parent="1" source="BQAjQg9iaMsQocKrUO1B-185" target="QjU3JXXY-2pWFs3UZOMo-53">
          <mxGeometry width="50" height="50" relative="1" as="geometry">
            <mxPoint x="353.2860520094564" y="2428" as="sourcePoint" />
            <mxPoint x="356.1702127659578" y="2550" as="targetPoint" />
          </mxGeometry>
        </mxCell>
      </root>
    </mxGraphModel>
  </diagram>
  <diagram id="nNrPbDQTDCdM0eyME7X6" name="Vendor Dashboard Flow">
    <mxGraphModel dx="-239" dy="-216" grid="1" gridSize="10" guides="1" tooltips="1" connect="1" arrows="1" fold="1" page="1" pageScale="1" pageWidth="850" pageHeight="1100" math="0" shadow="0">
      <root>
        <mxCell id="NTtQifTznPxPFgeFOSGQ-0" />
        <mxCell id="NTtQifTznPxPFgeFOSGQ-1" parent="NTtQifTznPxPFgeFOSGQ-0" />
        <UserObject label="Vendor Dashboard" link="data:page/id,c4acf3e9-155e-7222-9cf6-157b1a14988f" id="coFGhorvY-Spzbasxn3W-0">
          <mxCell style="swimlane;html=1;fontStyle=0;childLayout=stackLayout;horizontal=1;startSize=26;fillColor=#60a917;horizontalStack=0;resizeParent=1;resizeLast=0;collapsible=1;marginBottom=0;swimlaneFillColor=#ffffff;rounded=0;shadow=0;comic=0;labelBackgroundColor=none;strokeWidth=1;fontFamily=Verdana;fontSize=15;align=center;strokeColor=#2D7600;fontColor=#ffffff;" parent="NTtQifTznPxPFgeFOSGQ-1" vertex="1">
            <mxGeometry x="986" y="1239" width="580" height="418" as="geometry" />
          </mxCell>
        </UserObject>
        <mxCell id="coFGhorvY-Spzbasxn3W-1" value="Props: None" style="text;html=1;strokeColor=#82b366;align=left;verticalAlign=top;spacingLeft=4;spacingRight=4;whiteSpace=wrap;overflow=hidden;rotatable=0;points=[[0,0.5],[1,0.5]];portConstraint=eastwest;sketch=0;rounded=0;fillColor=#d5e8d4;" parent="coFGhorvY-Spzbasxn3W-0" vertex="1">
          <mxGeometry y="26" width="580" height="34" as="geometry" />
        </mxCell>
        <mxCell id="coFGhorvY-Spzbasxn3W-3" value="State" style="text;html=1;strokeColor=#6c8ebf;fillColor=#dae8fc;align=left;verticalAlign=top;spacingLeft=4;spacingRight=4;whiteSpace=wrap;overflow=hidden;rotatable=0;points=[[0,0.5],[1,0.5]];portConstraint=eastwest;" parent="coFGhorvY-Spzbasxn3W-0" vertex="1">
          <mxGeometry y="60" width="580" height="26" as="geometry" />
        </mxCell>
        <mxCell id="coFGhorvY-Spzbasxn3W-2" value="Child components:&lt;br&gt;&lt;br&gt;&lt;div&gt;&lt;div style=&quot;color: rgb(0 , 255 , 156) ; background-color: rgb(38 , 29 , 69) ; font-family: &amp;#34;consolas&amp;#34; , &amp;#34;courier new&amp;#34; , monospace ; font-size: 18px ; line-height: 24px&quot;&gt;&lt;span style=&quot;color: #00b0ff&quot;&gt;&amp;lt;&lt;/span&gt;Dashboard&lt;span style=&quot;color: #00b0ff&quot;&gt;&amp;nbsp;&lt;/span&gt;&lt;span style=&quot;color: #ee6dff&quot;&gt;slug&lt;/span&gt;&lt;span style=&quot;color: #d57bff&quot;&gt;=&lt;/span&gt;&lt;span style=&quot;color: #00b0ff&quot;&gt;{&lt;/span&gt;&lt;span style=&quot;color: #b4baff&quot;&gt;slug&lt;/span&gt;&lt;span style=&quot;color: #00b0ff&quot;&gt;}&amp;nbsp;&lt;/span&gt;&lt;span style=&quot;color: #ee6dff&quot;&gt;dashboardType&lt;/span&gt;&lt;span style=&quot;color: #d57bff&quot;&gt;=&lt;/span&gt;&lt;span style=&quot;color: #00b0ff&quot;&gt;&quot;&lt;/span&gt;&lt;span style=&quot;color: #76c1ff&quot;&gt;vendors&lt;/span&gt;&lt;span style=&quot;color: #00b0ff&quot;&gt;&quot;&lt;/span&gt;&lt;span style=&quot;color: #00b0ff&quot;&gt;&amp;nbsp;&lt;/span&gt;&lt;span style=&quot;color: #00b0ff&quot;&gt;/&amp;gt;&lt;/span&gt;&lt;/div&gt;&lt;/div&gt;" style="text;html=1;strokeColor=#666666;align=left;verticalAlign=top;spacingLeft=4;spacingRight=4;whiteSpace=wrap;overflow=hidden;rotatable=0;points=[[0,0.5],[1,0.5]];portConstraint=eastwest;sketch=0;rounded=0;fillColor=#f5f5f5;fontColor=#333333;" parent="coFGhorvY-Spzbasxn3W-0" vertex="1">
          <mxGeometry y="86" width="580" height="90" as="geometry" />
        </mxCell>
        <mxCell id="coFGhorvY-Spzbasxn3W-4" value="Functions:&lt;br&gt;&lt;br&gt;&lt;div style=&quot;color: rgb(0 , 255 , 156) ; background-color: rgb(38 , 29 , 69) ; font-family: &amp;quot;consolas&amp;quot; , &amp;quot;courier new&amp;quot; , monospace ; font-size: 18px ; line-height: 24px&quot;&gt;&lt;div&gt;&lt;span style=&quot;color: #00b0ff&quot;&gt;if&lt;/span&gt;&amp;nbsp;(&lt;span style=&quot;color: #d57bff&quot;&gt;!&lt;/span&gt;&lt;span style=&quot;color: #b4baff&quot;&gt;router&lt;/span&gt;&lt;span style=&quot;color: #00b0ff&quot;&gt;.&lt;/span&gt;&lt;span style=&quot;color: #b4baff&quot;&gt;isReady&lt;/span&gt;)&amp;nbsp;&lt;span style=&quot;color: #00b0ff&quot;&gt;{&lt;/span&gt;&lt;/div&gt;&lt;div&gt;&amp;nbsp;&amp;nbsp;&amp;nbsp;&amp;nbsp;&lt;span style=&quot;color: #00b0ff&quot;&gt;return&lt;/span&gt;&amp;nbsp;&lt;span style=&quot;color: #fffc58&quot;&gt;null&lt;/span&gt;&lt;span style=&quot;color: #00b0ff&quot;&gt;;&lt;/span&gt;&lt;/div&gt;&lt;div&gt;&amp;nbsp;&amp;nbsp;&lt;span style=&quot;color: #00b0ff&quot;&gt;}&lt;/span&gt;&lt;/div&gt;&lt;/div&gt;" style="text;html=1;strokeColor=#9673a6;fillColor=#e1d5e7;align=left;verticalAlign=top;spacingLeft=4;spacingRight=4;whiteSpace=wrap;overflow=hidden;rotatable=0;points=[[0,0.5],[1,0.5]];portConstraint=eastwest;" parent="coFGhorvY-Spzbasxn3W-0" vertex="1">
          <mxGeometry y="176" width="580" height="144" as="geometry" />
        </mxCell>
        <mxCell id="coFGhorvY-Spzbasxn3W-5" value="Variables:&lt;br&gt;&lt;br&gt;&lt;div style=&quot;color: rgb(0 , 255 , 156) ; background-color: rgb(38 , 29 , 69) ; font-family: &amp;#34;consolas&amp;#34; , &amp;#34;courier new&amp;#34; , monospace ; font-size: 18px ; line-height: 24px&quot;&gt;&lt;span style=&quot;color: #d57bff&quot;&gt;const&lt;/span&gt;&amp;nbsp;&lt;span style=&quot;color: #b4baff&quot;&gt;router&lt;/span&gt;&amp;nbsp;&lt;span style=&quot;color: #d57bff&quot;&gt;=&lt;/span&gt;&amp;nbsp;&lt;span style=&quot;color: #00b0ff&quot;&gt;useRouter&lt;/span&gt;()&lt;span style=&quot;color: #00b0ff&quot;&gt;;&lt;/span&gt;&lt;/div&gt;&lt;div style=&quot;color: rgb(0 , 255 , 156) ; background-color: rgb(38 , 29 , 69) ; font-family: &amp;#34;consolas&amp;#34; , &amp;#34;courier new&amp;#34; , monospace ; font-size: 18px ; line-height: 24px&quot;&gt;&lt;div style=&quot;line-height: 24px&quot;&gt;&lt;span style=&quot;color: #d57bff&quot;&gt;const&lt;/span&gt;&amp;nbsp;&lt;span style=&quot;color: #00b0ff&quot;&gt;{&lt;/span&gt;&amp;nbsp;&lt;span style=&quot;color: #b4baff&quot;&gt;slug&lt;/span&gt;&amp;nbsp;&lt;span style=&quot;color: #00b0ff&quot;&gt;}&lt;/span&gt;&amp;nbsp;&lt;span style=&quot;color: #d57bff&quot;&gt;=&lt;/span&gt;&amp;nbsp;&lt;span style=&quot;color: #b4baff&quot;&gt;router&lt;/span&gt;&lt;span style=&quot;color: #00b0ff&quot;&gt;.&lt;/span&gt;&lt;span style=&quot;color: #b4baff&quot;&gt;query&lt;/span&gt;&lt;span style=&quot;color: #00b0ff&quot;&gt;;&lt;/span&gt;&lt;/div&gt;&lt;/div&gt;" style="text;html=1;strokeColor=#d79b00;fillColor=#ffe6cc;align=left;verticalAlign=top;spacingLeft=4;spacingRight=4;whiteSpace=wrap;overflow=hidden;rotatable=0;points=[[0,0.5],[1,0.5]];portConstraint=eastwest;" parent="coFGhorvY-Spzbasxn3W-0" vertex="1">
          <mxGeometry y="320" width="580" height="98" as="geometry" />
        </mxCell>
        <mxCell id="29gSJmFES7YvPjj2eeH2-1" value="" style="endArrow=classic;html=1;fontSize=15;entryX=0.5;entryY=0;entryDx=0;entryDy=0;" parent="NTtQifTznPxPFgeFOSGQ-1" target="coFGhorvY-Spzbasxn3W-0" edge="1">
          <mxGeometry width="50" height="50" relative="1" as="geometry">
            <mxPoint x="1275" y="1110" as="sourcePoint" />
            <mxPoint x="1300" y="1230" as="targetPoint" />
            <Array as="points" />
          </mxGeometry>
        </mxCell>
        <mxCell id="29gSJmFES7YvPjj2eeH2-2" value="Text" style="edgeLabel;html=1;align=center;verticalAlign=middle;resizable=0;points=[];fontSize=15;" parent="29gSJmFES7YvPjj2eeH2-1" vertex="1" connectable="0">
          <mxGeometry x="0.1846" relative="1" as="geometry">
            <mxPoint as="offset" />
          </mxGeometry>
        </mxCell>
      </root>
    </mxGraphModel>
  </diagram>
  <diagram id="4088qCVGhdifxttrziGU" name="Creator Dashboard">
    <mxGraphModel dx="428" dy="619" grid="1" gridSize="10" guides="1" tooltips="1" connect="1" arrows="1" fold="1" page="1" pageScale="1" pageWidth="850" pageHeight="1100" math="0" shadow="0">
      <root>
        <mxCell id="dpquIkItjaGIMWXirJw3-0" />
        <mxCell id="dpquIkItjaGIMWXirJw3-1" parent="dpquIkItjaGIMWXirJw3-0" />
      </root>
    </mxGraphModel>
  </diagram>
</mxfile>
